/* n88_normal_chars.xbm --- PC-9801 series quality characters.
   There are 256 characters in this image file.
   One character size is 8x16 bits.

LEGAL NOTICE:
   This file is in the exception of the Japanese copyright laws.
   If you are in Japan, you can use it under Public Domain Software (PDS).
   If you are out of Japan, you may follow the laws of your area. */
#define n88_quality_chars_width 2048
#define n88_quality_chars_height 16
static const unsigned char n88_quality_chars_bits[] = {
   0x00, 0x1c, 0x1c, 0x3e, 0x3e, 0x3e, 0x08, 0x1e, 0x1e, 0x22, 0x02, 0x22,
   0x1c, 0x1c, 0x1c, 0x1c, 0x1e, 0x1e, 0x1e, 0x1e, 0x1e, 0x22, 0x1c, 0x3e,
   0x1c, 0x3e, 0x1c, 0x3e, 0x00, 0x00, 0x00, 0x00, 0x00, 0x00, 0x00, 0x00,
   0x00, 0x00, 0x00, 0x00, 0x00, 0x00, 0x00, 0x00, 0x00, 0x00, 0x00, 0x00,
   0x00, 0x00, 0x00, 0x00, 0x00, 0x00, 0x00, 0x00, 0x00, 0x00, 0x00, 0x00,
   0x00, 0x00, 0x00, 0x00, 0x00, 0x00, 0x00, 0x00, 0x00, 0x00, 0x00, 0x00,
   0x00, 0x00, 0x00, 0x00, 0x00, 0x00, 0x00, 0x00, 0x00, 0x00, 0x00, 0x00,
   0x00, 0x00, 0x00, 0x00, 0x00, 0x00, 0x00, 0x00, 0x00, 0x00, 0x00, 0x00,
   0x08, 0x00, 0x00, 0x00, 0x00, 0x00, 0x00, 0x00, 0x00, 0x00, 0x00, 0x00,
   0x00, 0x00, 0x00, 0x00, 0x00, 0x00, 0x00, 0x00, 0x00, 0x00, 0x00, 0x00,
   0x00, 0x00, 0x00, 0x00, 0x00, 0x00, 0x00, 0x00, 0x00, 0x00, 0x00, 0x00,
   0x00, 0x00, 0x00, 0xff, 0x01, 0x03, 0x07, 0x0f, 0x1f, 0x3f, 0x7f, 0x10,
   0x10, 0x00, 0x10, 0x10, 0xff, 0x00, 0x10, 0x80, 0x00, 0x00, 0x10, 0x10,
   0x00, 0x00, 0x10, 0x10, 0x00, 0x00, 0x00, 0x00, 0x00, 0x00, 0x00, 0x00,
   0x00, 0x00, 0x00, 0x00, 0x00, 0x00, 0x00, 0x00, 0x00, 0x00, 0x00, 0x00,
   0x00, 0x00, 0x00, 0x00, 0x00, 0x00, 0x00, 0x00, 0x00, 0x00, 0x00, 0x00,
   0x00, 0x00, 0x00, 0x00, 0x00, 0x00, 0x00, 0x00, 0x00, 0x00, 0x00, 0x00,
   0x00, 0x00, 0x00, 0x00, 0x00, 0x00, 0x00, 0x00, 0x00, 0x00, 0x00, 0x00,
   0x00, 0x00, 0x00, 0x00, 0x00, 0x00, 0x00, 0x00, 0x00, 0x10, 0x10, 0x10,
   0x80, 0x01, 0xff, 0xff, 0x10, 0x6c, 0x10, 0x10, 0x00, 0x00, 0x80, 0x01,
   0x81, 0x00, 0x00, 0x00, 0x00, 0x00, 0x00, 0x00, 0x00, 0x00, 0x00, 0x00,
   0x00, 0x00, 0x00, 0x00, 0x00, 0x22, 0x22, 0x02, 0x02, 0x02, 0x14, 0x22,
   0x22, 0x22, 0x02, 0x22, 0x22, 0x22, 0x22, 0x22, 0x22, 0x22, 0x22, 0x22,
   0x22, 0x22, 0x22, 0x02, 0x22, 0x02, 0x22, 0x02, 0x00, 0x00, 0x00, 0x00,
   0x00, 0x00, 0x00, 0x00, 0x00, 0x00, 0x00, 0x00, 0x00, 0x00, 0x00, 0x00,
   0x00, 0x00, 0x00, 0x00, 0x00, 0x00, 0x00, 0x00, 0x00, 0x00, 0x00, 0x00,
   0x00, 0x00, 0x00, 0x00, 0x00, 0x00, 0x00, 0x00, 0x00, 0x00, 0x00, 0x00,
   0x00, 0x00, 0x00, 0x00, 0x00, 0x00, 0x00, 0x00, 0x00, 0x00, 0x00, 0x00,
   0x00, 0x00, 0x00, 0x00, 0x00, 0x00, 0x00, 0x00, 0x00, 0x00, 0x00, 0x00,
   0x00, 0x00, 0x00, 0x00, 0x18, 0x00, 0x00, 0x00, 0x00, 0x00, 0x00, 0x00,
   0x00, 0x00, 0x00, 0x00, 0x00, 0x00, 0x00, 0x00, 0x00, 0x00, 0x00, 0x00,
   0x00, 0x00, 0x00, 0x00, 0x00, 0x00, 0x00, 0x00, 0x00, 0x00, 0x00, 0x00,
   0x00, 0x00, 0x00, 0x00, 0x00, 0x00, 0x00, 0xff, 0x01, 0x03, 0x07, 0x0f,
   0x1f, 0x3f, 0x7f, 0x10, 0x10, 0x00, 0x10, 0x10, 0x00, 0x00, 0x10, 0x80,
   0x00, 0x00, 0x10, 0x10, 0x00, 0x00, 0x10, 0x10, 0x00, 0x00, 0x00, 0x00,
   0x00, 0x00, 0x00, 0x00, 0x00, 0x00, 0x00, 0x00, 0x00, 0x00, 0x00, 0x00,
   0x00, 0x00, 0x00, 0x00, 0x00, 0x00, 0x00, 0x00, 0x00, 0x00, 0x00, 0x00,
   0x00, 0x00, 0x00, 0x00, 0x00, 0x00, 0x00, 0x00, 0x00, 0x00, 0x00, 0x00,
   0x00, 0x00, 0x00, 0x00, 0x00, 0x00, 0x00, 0x00, 0x00, 0x00, 0x00, 0x00,
   0x00, 0x00, 0x00, 0x00, 0x00, 0x00, 0x00, 0x00, 0x00, 0x00, 0x00, 0x00,
   0x00, 0x10, 0x10, 0x10, 0x80, 0x01, 0xff, 0xff, 0x10, 0x6c, 0x10, 0x38,
   0x00, 0x00, 0x80, 0x01, 0x81, 0xfe, 0x04, 0xfc, 0x7e, 0x20, 0x20, 0x28,
   0x00, 0x00, 0x00, 0x00, 0x00, 0x00, 0x00, 0x00, 0x00, 0x02, 0x02, 0x02,
   0x02, 0x02, 0x22, 0x22, 0x22, 0x22, 0x02, 0x22, 0x02, 0x02, 0x02, 0x02,
   0x22, 0x22, 0x22, 0x22, 0x22, 0x26, 0x02, 0x02, 0x02, 0x02, 0x02, 0x02,
   0x10, 0x08, 0x10, 0x10, 0x00, 0x00, 0x00, 0x00, 0x10, 0x00, 0x00, 0x00,
   0x00, 0x00, 0x00, 0x00, 0x00, 0x00, 0x00, 0x00, 0x00, 0x00, 0x00, 0x00,
   0x00, 0x00, 0x00, 0x00, 0x00, 0x00, 0x00, 0x00, 0x00, 0x00, 0x00, 0x00,
   0x00, 0x00, 0x00, 0x00, 0x00, 0x00, 0x00, 0x00, 0x00, 0x00, 0x00, 0x00,
   0x00, 0x00, 0x00, 0x00, 0x00, 0x00, 0x00, 0x00, 0x00, 0x00, 0x00, 0x00,
   0x00, 0x00, 0x00, 0x00, 0x00, 0x00, 0x00, 0x00, 0x30, 0x00, 0x00, 0x00,
   0x00, 0x00, 0x00, 0x00, 0x00, 0x00, 0x00, 0x00, 0x00, 0x00, 0x00, 0x00,
   0x00, 0x00, 0x00, 0x00, 0x00, 0x00, 0x00, 0x00, 0x00, 0x00, 0x00, 0x00,
   0x10, 0x00, 0x00, 0x00, 0x00, 0x00, 0x00, 0x00, 0x00, 0x00, 0xff, 0xff,
   0x01, 0x03, 0x07, 0x0f, 0x1f, 0x3f, 0x7f, 0x10, 0x10, 0x00, 0x10, 0x10,
   0x00, 0x00, 0x10, 0x80, 0x00, 0x00, 0x10, 0x10, 0x00, 0x00, 0x10, 0x10,
   0x00, 0x00, 0x00, 0x00, 0x00, 0x00, 0x00, 0x00, 0x00, 0x00, 0x00, 0x00,
   0x00, 0x00, 0x00, 0x00, 0x00, 0x00, 0x00, 0x00, 0x00, 0x00, 0x00, 0x00,
   0x00, 0x00, 0x00, 0x00, 0x00, 0x00, 0x00, 0x00, 0x00, 0x00, 0x00, 0x00,
   0x00, 0x00, 0x00, 0x00, 0x00, 0x00, 0x00, 0x00, 0x00, 0x00, 0x00, 0x00,
   0x00, 0x00, 0x00, 0x00, 0x00, 0x00, 0x00, 0x00, 0x00, 0x00, 0x00, 0x00,
   0x00, 0x00, 0x12, 0x0c, 0x00, 0x10, 0x10, 0x10, 0xc0, 0x03, 0xfe, 0x7f,
   0x38, 0xfe, 0x38, 0x38, 0x38, 0x38, 0x40, 0x02, 0x42, 0x92, 0x04, 0x84,
   0x42, 0x20, 0x48, 0x24, 0x00, 0x00, 0x00, 0x00, 0x00, 0x00, 0x00, 0x00,
   0x00, 0x1c, 0x1c, 0x1e, 0x1e, 0x1e, 0x3e, 0x1e, 0x1e, 0x3e, 0x02, 0x3e,
   0x02, 0x02, 0x1c, 0x1c, 0x22, 0x22, 0x22, 0x22, 0x22, 0x2a, 0x1c, 0x1e,
   0x02, 0x1e, 0x1c, 0x1e, 0x10, 0x08, 0x10, 0x10, 0x00, 0x08, 0x6c, 0x44,
   0x10, 0x04, 0x1c, 0x18, 0x40, 0x04, 0x00, 0x00, 0x00, 0x00, 0x00, 0x00,
   0x7c, 0x10, 0x38, 0x38, 0x40, 0x7e, 0x38, 0xfe, 0x38, 0x38, 0x00, 0x00,
   0x00, 0x00, 0x00, 0x38, 0x38, 0x10, 0x3e, 0x38, 0x3e, 0xfe, 0xfe, 0x38,
   0x82, 0x38, 0xe0, 0x82, 0x04, 0x82, 0x82, 0x38, 0x3e, 0x38, 0x3e, 0x38,
   0xfe, 0x82, 0x82, 0x82, 0x82, 0x82, 0xfe, 0x70, 0x82, 0x1c, 0x10, 0x00,
   0x20, 0x00, 0x04, 0x00, 0x40, 0x00, 0x30, 0x00, 0x04, 0x10, 0x20, 0x04,
   0x18, 0x00, 0x00, 0x00, 0x00, 0x00, 0x00, 0x00, 0x08, 0x00, 0x00, 0x00,
   0x00, 0x00, 0x00, 0x60, 0x10, 0x0c, 0x0c, 0x00, 0x00, 0x00, 0x00, 0x00,
   0x00, 0x00, 0xff, 0xff, 0x01, 0x03, 0x07, 0x0f, 0x1f, 0x3f, 0x7f, 0x10,
   0x10, 0x00, 0x10, 0x10, 0x00, 0x00, 0x10, 0x80, 0x00, 0x00, 0x10, 0x10,
   0x00, 0x00, 0x10, 0x10, 0x00, 0x00, 0x78, 0x00, 0x00, 0x00, 0x00, 0x00,
   0x00, 0x00, 0x00, 0x00, 0x00, 0x00, 0x00, 0x00, 0x00, 0x00, 0x80, 0x10,
   0x00, 0x20, 0x10, 0x10, 0x08, 0x04, 0x00, 0x44, 0x00, 0x00, 0x08, 0x00,
   0x08, 0xc0, 0x00, 0x00, 0x04, 0x10, 0x00, 0x00, 0x10, 0x00, 0x10, 0x02,
   0x00, 0x00, 0x10, 0x00, 0x00, 0x10, 0x40, 0x00, 0x08, 0x00, 0x00, 0x7c,
   0x44, 0x10, 0x04, 0x00, 0x00, 0x00, 0x24, 0x12, 0x00, 0x10, 0x10, 0x10,
   0xc0, 0x03, 0xfe, 0x7f, 0x38, 0xfe, 0x38, 0x38, 0x7c, 0x44, 0x40, 0x02,
   0x42, 0x92, 0xfc, 0x84, 0x42, 0x7e, 0x84, 0x26, 0x00, 0x00, 0x00, 0x00,
   0x00, 0x00, 0x00, 0x00, 0x00, 0x20, 0x20, 0x02, 0x02, 0x02, 0x22, 0x22,
   0x22, 0x22, 0x02, 0x22, 0x02, 0x02, 0x20, 0x20, 0x22, 0x22, 0x22, 0x22,
   0x22, 0x32, 0x20, 0x02, 0x02, 0x02, 0x20, 0x02, 0x20, 0x04, 0x38, 0x10,
   0x00, 0x08, 0x6c, 0x44, 0x7c, 0x0a, 0x22, 0x18, 0x20, 0x08, 0x00, 0x00,
   0x00, 0x00, 0x00, 0x00, 0xc2, 0x18, 0x44, 0x44, 0x60, 0x02, 0x44, 0x82,
   0x44, 0x44, 0x00, 0x00, 0x40, 0x00, 0x04, 0x44, 0x44, 0x28, 0x42, 0x44,
   0x44, 0x02, 0x02, 0x44, 0x82, 0x10, 0x40, 0x42, 0x04, 0xc6, 0x86, 0x44,
   0x42, 0x44, 0x42, 0x44, 0x10, 0x82, 0x82, 0x82, 0x82, 0x82, 0x80, 0x10,
   0x44, 0x10, 0x28, 0x00, 0x00, 0x00, 0x04, 0x00, 0x40, 0x00, 0x48, 0x00,
   0x04, 0x10, 0x20, 0x04, 0x10, 0x00, 0x00, 0x00, 0x00, 0x00, 0x00, 0x00,
   0x08, 0x00, 0x00, 0x00, 0x00, 0x00, 0x00, 0x10, 0x10, 0x10, 0x92, 0x00,
   0x00, 0x00, 0x00, 0x00, 0x00, 0xff, 0xff, 0xff, 0x01, 0x03, 0x07, 0x0f,
   0x1f, 0x3f, 0x7f, 0x10, 0x10, 0x00, 0x10, 0x10, 0x00, 0x00, 0x10, 0x80,
   0x00, 0x00, 0x10, 0x10, 0x00, 0x00, 0x10, 0x10, 0x00, 0x00, 0x08, 0x00,
   0x00, 0x00, 0xfe, 0x00, 0x00, 0x00, 0x00, 0x00, 0x00, 0x00, 0x00, 0x00,
   0x00, 0xfe, 0x80, 0x10, 0x7c, 0x20, 0x10, 0x10, 0xf8, 0x04, 0xfe, 0x44,
   0x06, 0x7e, 0x08, 0x82, 0xf8, 0x3c, 0x92, 0x7c, 0x04, 0x10, 0x7c, 0x7e,
   0x10, 0x80, 0x20, 0x02, 0xfe, 0x08, 0x10, 0xfe, 0x3c, 0x10, 0x40, 0xfe,
   0x08, 0x3c, 0xfe, 0x00, 0x44, 0x10, 0x04, 0xfe, 0xfe, 0x06, 0x48, 0x12,
   0xff, 0xf0, 0xff, 0x1f, 0xe0, 0x07, 0xfc, 0x3f, 0x7c, 0xfe, 0x7c, 0x54,
   0xfe, 0x82, 0x20, 0x04, 0x24, 0x92, 0x22, 0x84, 0x42, 0x2a, 0x84, 0x34,
   0x00, 0x00, 0x00, 0x00, 0x00, 0x00, 0x00, 0x00, 0x00, 0x22, 0x22, 0x02,
   0x02, 0x02, 0x22, 0x22, 0x22, 0x22, 0x02, 0x22, 0x22, 0x22, 0x22, 0x22,
   0x22, 0x22, 0x22, 0x22, 0x22, 0x22, 0x22, 0x02, 0x22, 0x02, 0x22, 0x02,
   0x20, 0x04, 0x38, 0x10, 0x00, 0x08, 0x48, 0xfe, 0x92, 0x8a, 0x22, 0x10,
   0x20, 0x08, 0x00, 0x10, 0x00, 0x00, 0x00, 0x80, 0xc2, 0x14, 0x82, 0x82,
   0x50, 0x02, 0x82, 0x42, 0x82, 0x82, 0x00, 0x00, 0x20, 0x00, 0x08, 0x82,
   0x82, 0x44, 0x82, 0x82, 0x84, 0x02, 0x02, 0x82, 0x82, 0x10, 0x40, 0x22,
   0x04, 0xaa, 0x8a, 0x82, 0x82, 0x82, 0x82, 0x82, 0x10, 0x82, 0x82, 0x82,
   0x82, 0x82, 0x80, 0x10, 0x28, 0x10, 0x44, 0x00, 0x00, 0x00, 0x04, 0x00,
   0x40, 0x00, 0x08, 0x00, 0x04, 0x00, 0x00, 0x04, 0x10, 0x00, 0x00, 0x00,
   0x00, 0x00, 0x00, 0x00, 0x08, 0x00, 0x00, 0x00, 0x00, 0x00, 0x00, 0x10,
   0x10, 0x10, 0x60, 0x00, 0x00, 0x00, 0x00, 0x00, 0x00, 0xff, 0xff, 0xff,
   0x01, 0x03, 0x07, 0x0f, 0x1f, 0x3f, 0x7f, 0x10, 0x10, 0x00, 0x10, 0x10,
   0x00, 0x00, 0x10, 0x80, 0x00, 0x00, 0x10, 0x10, 0x00, 0x00, 0x20, 0x08,
   0x00, 0x00, 0x08, 0x20, 0x00, 0x00, 0x80, 0x00, 0x00, 0x00, 0x00, 0x00,
   0x00, 0x00, 0x00, 0x00, 0x00, 0x80, 0x40, 0xfe, 0x10, 0xfe, 0xfe, 0xfe,
   0x88, 0xfc, 0x80, 0x44, 0x88, 0x40, 0xfe, 0x84, 0x88, 0x20, 0x92, 0x00,
   0x04, 0x10, 0x00, 0x40, 0xfe, 0x80, 0x44, 0x02, 0x80, 0x18, 0x10, 0x80,
   0x40, 0x10, 0x40, 0x08, 0xfe, 0x20, 0x80, 0x00, 0x44, 0x14, 0x04, 0x82,
   0x82, 0x18, 0x00, 0x0c, 0x00, 0x10, 0x10, 0x10, 0xe0, 0x07, 0xfc, 0x3f,
   0x7c, 0xfe, 0x7c, 0xfe, 0xfe, 0x82, 0x20, 0x04, 0x24, 0x92, 0x20, 0xfc,
   0x42, 0x2a, 0x82, 0x74, 0x00, 0x00, 0x00, 0x00, 0x02, 0x00, 0x00, 0x00,
   0x00, 0x1c, 0x1c, 0x3e, 0x3e, 0x3e, 0x22, 0x1e, 0x1e, 0x22, 0x3e, 0x22,
   0x1c, 0x1c, 0x1c, 0x1c, 0x1e, 0x1e, 0x1e, 0x1e, 0x1e, 0x22, 0x1c, 0x3e,
   0x1c, 0x3e, 0x1c, 0x3e, 0x7e, 0x7e, 0x54, 0x10, 0x00, 0x08, 0x24, 0x44,
   0x92, 0x44, 0x22, 0x08, 0x10, 0x10, 0x10, 0x10, 0x00, 0x00, 0x00, 0x40,
   0xa2, 0x10, 0x82, 0x80, 0x50, 0x02, 0x02, 0x20, 0x82, 0x82, 0x18, 0x18,
   0x10, 0x00, 0x10, 0x82, 0x80, 0x82, 0x82, 0x02, 0x84, 0x02, 0x02, 0x02,
   0x82, 0x10, 0x40, 0x12, 0x04, 0x92, 0x8a, 0x82, 0x82, 0x82, 0x82, 0x02,
   0x10, 0x82, 0x82, 0x82, 0x44, 0x44, 0x40, 0x10, 0x10, 0x10, 0x82, 0x00,
   0x00, 0x3c, 0x34, 0x38, 0x58, 0x38, 0x3c, 0xb8, 0x34, 0x00, 0x00, 0x84,
   0x10, 0x6e, 0x74, 0x38, 0x34, 0x58, 0x34, 0x7c, 0x3e, 0x42, 0x82, 0x82,
   0x82, 0x84, 0xfe, 0x10, 0x00, 0x10, 0x00, 0x00, 0x00, 0x00, 0x00, 0x00,
   0xff, 0xff, 0xff, 0xff, 0x01, 0x03, 0x07, 0x0f, 0x1f, 0x3f, 0x7f, 0x10,
   0x10, 0x00, 0x10, 0x10, 0x00, 0x00, 0x10, 0x80, 0x00, 0x00, 0x10, 0x10,
   0x00, 0x00, 0x20, 0x08, 0x00, 0x00, 0x08, 0x20, 0x00, 0x00, 0x80, 0x00,
   0x80, 0x10, 0x00, 0x20, 0x08, 0x00, 0x00, 0x00, 0x00, 0x80, 0x40, 0x82,
   0x10, 0x20, 0x90, 0x10, 0x84, 0x24, 0x80, 0xfe, 0x80, 0x40, 0x88, 0x84,
   0x84, 0x20, 0x92, 0x00, 0x04, 0xfe, 0x00, 0x40, 0x80, 0x80, 0x84, 0xfe,
   0x80, 0x14, 0xfe, 0x80, 0x00, 0x08, 0x44, 0x08, 0x88, 0x20, 0x80, 0xfe,
   0x44, 0x14, 0x04, 0x82, 0x82, 0x80, 0x00, 0x00, 0x00, 0x10, 0x10, 0x10,
   0xf0, 0x0f, 0xf8, 0x1f, 0xfe, 0xfe, 0xfe, 0xfe, 0xfe, 0x82, 0x10, 0x08,
   0x18, 0x92, 0xfc, 0x84, 0x42, 0xfa, 0x00, 0xae, 0x00, 0x00, 0x00, 0x00,
   0x04, 0x00, 0x00, 0x00, 0x00, 0x00, 0x00, 0x00, 0x00, 0x00, 0x00, 0x00,
   0x00, 0x00, 0x00, 0x00, 0x00, 0x00, 0x00, 0x00, 0x00, 0x00, 0x00, 0x00,
   0x00, 0x00, 0x00, 0x00, 0x00, 0x00, 0x00, 0x00, 0x20, 0x04, 0x54, 0x10,
   0x00, 0x08, 0x00, 0x44, 0x12, 0x20, 0x14, 0x00, 0x10, 0x10, 0x54, 0x10,
   0x00, 0x00, 0x00, 0x20, 0xa2, 0x10, 0x80, 0x40, 0x48, 0x3a, 0x3a, 0x20,
   0x44, 0x82, 0x18, 0x18, 0x08, 0xfe, 0x20, 0x80, 0x8c, 0x82, 0x42, 0x02,
   0x84, 0x02, 0x02, 0x02, 0x82, 0x10, 0x40, 0x0a, 0x04, 0x92, 0x92, 0x82,
   0x82, 0x82, 0x42, 0x04, 0x10, 0x82, 0x82, 0x82, 0x28, 0x28, 0x20, 0x10,
   0xfe, 0x10, 0x00, 0x00, 0x00, 0x42, 0x4c, 0x44, 0x64, 0x44, 0x08, 0xc4,
   0x4c, 0x10, 0x20, 0x44, 0x10, 0x92, 0x8c, 0x44, 0x4c, 0x64, 0x4c, 0x82,
   0x08, 0x42, 0x82, 0x82, 0x44, 0x84, 0x40, 0x10, 0x00, 0x10, 0x00, 0x00,
   0x00, 0x00, 0x00, 0x00, 0xff, 0xff, 0xff, 0xff, 0x01, 0x03, 0x07, 0x0f,
   0x1f, 0x3f, 0x7f, 0x10, 0x10, 0x00, 0x10, 0x10, 0x00, 0x00, 0x10, 0x80,
   0x00, 0x00, 0x10, 0x10, 0x00, 0x00, 0x40, 0x04, 0x00, 0x00, 0x08, 0x20,
   0x00, 0x18, 0xfe, 0xfe, 0x40, 0xfe, 0x7c, 0x20, 0x08, 0x3c, 0x7e, 0x92,
   0x00, 0x90, 0x20, 0x82, 0x10, 0x30, 0x90, 0x10, 0x84, 0x22, 0x80, 0x44,
   0x86, 0x20, 0x88, 0x88, 0x84, 0xfe, 0x92, 0xfe, 0x0c, 0x10, 0x00, 0x44,
   0x40, 0x40, 0x84, 0x02, 0x40, 0x24, 0x10, 0x40, 0x00, 0x08, 0x48, 0x08,
   0x88, 0x20, 0x80, 0x80, 0x44, 0x14, 0x04, 0x82, 0x82, 0x80, 0x00, 0x00,
   0x00, 0x10, 0x10, 0x10, 0xf0, 0x0f, 0xf8, 0x1f, 0xfe, 0xfe, 0xfe, 0xfe,
   0xfe, 0x82, 0x10, 0x08, 0x18, 0xfe, 0x24, 0x84, 0x7e, 0x4e, 0xfe, 0x24,
   0x00, 0x00, 0x00, 0x00, 0x08, 0x00, 0x00, 0x00, 0x00, 0x88, 0x88, 0x88,
   0xf8, 0x70, 0x88, 0x08, 0x70, 0xf8, 0xf8, 0x88, 0x08, 0x78, 0x70, 0x70,
   0xf8, 0x20, 0x70, 0x70, 0x40, 0x88, 0x88, 0x78, 0x88, 0x88, 0x78, 0x70,
   0x20, 0x04, 0x10, 0x54, 0x00, 0x08, 0x00, 0x44, 0x7c, 0x10, 0x08, 0x00,
   0x10, 0x10, 0x38, 0xfe, 0x00, 0xfe, 0x00, 0x10, 0x92, 0x10, 0x60, 0x38,
   0x48, 0x46, 0x46, 0x10, 0x38, 0xc4, 0x00, 0x00, 0x04, 0x00, 0x40, 0x60,
   0x92, 0x82, 0x3e, 0x02, 0x84, 0x7e, 0x7e, 0xe2, 0xfe, 0x10, 0x40, 0x06,
   0x04, 0x82, 0x92, 0x82, 0x42, 0x82, 0x3e, 0x38, 0x10, 0x82, 0x82, 0x92,
   0x10, 0x10, 0x10, 0x10, 0x10, 0x10, 0x00, 0x00, 0x00, 0x40, 0x84, 0x82,
   0x42, 0x82, 0x08, 0x82, 0x84, 0x10, 0x20, 0x24, 0x10, 0x92, 0x84, 0x82,
   0x84, 0x42, 0x04, 0x02, 0x08, 0x42, 0x44, 0x82, 0x28, 0x84, 0x20, 0x08,
   0x00, 0x20, 0x00, 0x00, 0x00, 0x00, 0x00, 0xff, 0xff, 0xff, 0xff, 0xff,
   0x01, 0x03, 0x07, 0x0f, 0x1f, 0x3f, 0x7f, 0xff, 0xff, 0xff, 0x1f, 0xf0,
   0x00, 0xff, 0x10, 0x80, 0xf0, 0x1f, 0xf0, 0x1f, 0x80, 0x03, 0x80, 0x03,
   0x00, 0x00, 0x08, 0x20, 0x00, 0x18, 0x80, 0x80, 0x20, 0x82, 0x10, 0xfe,
   0xfe, 0x20, 0x40, 0x92, 0x00, 0x70, 0x38, 0x82, 0x10, 0x30, 0x90, 0x10,
   0x82, 0x20, 0x80, 0x44, 0x88, 0x20, 0x48, 0x88, 0x8a, 0x20, 0x80, 0x10,
   0x14, 0x10, 0x00, 0x48, 0x20, 0x40, 0x84, 0x02, 0x40, 0x22, 0x10, 0x40,
   0x3c, 0x44, 0x50, 0xfe, 0x48, 0x20, 0xfc, 0x80, 0x44, 0x14, 0x04, 0x82,
   0x80, 0x80, 0x00, 0x00, 0x00, 0x10, 0x10, 0x10, 0xf8, 0x1f, 0xf0, 0x0f,
   0xfe, 0x7c, 0x7c, 0xfe, 0xfe, 0x82, 0x08, 0x10, 0x18, 0x82, 0x24, 0x84,
   0x42, 0xfa, 0x88, 0xae, 0x00, 0x00, 0x00, 0x00, 0x10, 0x00, 0x00, 0x00,
   0x00, 0x88, 0x88, 0x88, 0x20, 0x88, 0x48, 0x08, 0x88, 0x20, 0x08, 0xd8,
   0x08, 0x88, 0x88, 0x20, 0x08, 0x30, 0x88, 0x88, 0x20, 0x48, 0x88, 0x88,
   0x88, 0xd8, 0x88, 0x88, 0x10, 0x08, 0x10, 0x54, 0x00, 0x08, 0x00, 0x44,
   0x90, 0x08, 0x14, 0x00, 0x10, 0x10, 0x54, 0x10, 0x00, 0x00, 0x00, 0x08,
   0x8a, 0x10, 0x18, 0x40, 0x44, 0x80, 0x82, 0x10, 0x44, 0xb8, 0x00, 0x00,
   0x08, 0x00, 0x20, 0x10, 0x92, 0x82, 0x42, 0x02, 0x84, 0x02, 0x02, 0x82,
   0x82, 0x10, 0x40, 0x0a, 0x04, 0x82, 0xa2, 0x82, 0x3e, 0x82, 0x12, 0x40,
   0x10, 0x82, 0x82, 0x92, 0x28, 0x10, 0x08, 0x10, 0x10, 0x10, 0x00, 0x00,
   0x00, 0x7c, 0x84, 0x02, 0x42, 0xfe, 0x08, 0x82, 0x84, 0x10, 0x20, 0x14,
   0x10, 0x92, 0x84, 0x82, 0x84, 0x42, 0x04, 0x7c, 0x08, 0x42, 0x44, 0x92,
   0x10, 0x84, 0x10, 0x10, 0x00, 0x10, 0x00, 0x00, 0x00, 0x00, 0x00, 0xff,
   0xff, 0xff, 0xff, 0xff, 0x01, 0x03, 0x07, 0x0f, 0x1f, 0x3f, 0x7f, 0x10,
   0x00, 0x10, 0x10, 0x10, 0x00, 0x00, 0x10, 0x80, 0x10, 0x10, 0x00, 0x00,
   0x40, 0x04, 0x00, 0x00, 0x00, 0x00, 0x08, 0x20, 0x00, 0x00, 0x80, 0x90,
   0x38, 0x82, 0x10, 0x20, 0x88, 0x20, 0x40, 0x92, 0xfe, 0x10, 0x26, 0x80,
   0x10, 0x28, 0x88, 0x10, 0x80, 0x20, 0x80, 0x44, 0x80, 0x10, 0x08, 0x80,
   0x90, 0x20, 0x80, 0x10, 0x24, 0x10, 0x00, 0x30, 0x30, 0x20, 0x84, 0x02,
   0x20, 0x40, 0x54, 0x24, 0x40, 0x44, 0x20, 0x08, 0x08, 0x20, 0x80, 0x80,
   0x40, 0x94, 0x84, 0x82, 0x80, 0x80, 0x00, 0x00, 0x00, 0x10, 0x10, 0x10,
   0xf8, 0x1f, 0xf0, 0x0f, 0xfe, 0x7c, 0x7c, 0x54, 0xfe, 0x82, 0x08, 0x10,
   0x18, 0x82, 0x24, 0xfc, 0x42, 0x4a, 0x88, 0xa6, 0x00, 0x00, 0x00, 0x00,
   0x20, 0x00, 0x00, 0x00, 0x00, 0x88, 0x50, 0x50, 0x20, 0x88, 0x28, 0x08,
   0x08, 0x20, 0x08, 0xd8, 0x08, 0x88, 0x88, 0x20, 0x08, 0x20, 0x80, 0x80,
   0x50, 0x28, 0x98, 0x88, 0x98, 0xd8, 0x88, 0x08, 0x10, 0x08, 0x10, 0x38,
   0x00, 0x00, 0x00, 0x44, 0x92, 0x44, 0xa2, 0x00, 0x10, 0x10, 0x10, 0x10,
   0x00, 0x00, 0x00, 0x04, 0x8a, 0x10, 0x04, 0x80, 0x44, 0x80, 0x82, 0x10,
   0x82, 0x80, 0x00, 0x00, 0x10, 0xfe, 0x10, 0x10, 0x92, 0xfe, 0x82, 0x02,
   0x84, 0x02, 0x02, 0x82, 0x82, 0x10, 0x40, 0x12, 0x04, 0x82, 0xa2, 0x82,
   0x02, 0xba, 0x22, 0x80, 0x10, 0x82, 0x82, 0xaa, 0x44, 0x10, 0x04, 0x10,
   0xfe, 0x10, 0x00, 0x00, 0x00, 0x42, 0x84, 0x02, 0x42, 0x02, 0x08, 0x82,
   0x84, 0x10, 0x20, 0x1c, 0x10, 0x92, 0x84, 0x82, 0x84, 0x42, 0x04, 0x80,
   0x08, 0x42, 0x28, 0x92, 0x10, 0x84, 0x08, 0x10, 0x10, 0x10, 0x00, 0x00,
   0x00, 0x00, 0xff, 0xff, 0xff, 0xff, 0xff, 0xff, 0x01, 0x03, 0x07, 0x0f,
   0x1f, 0x3f, 0x7f, 0x10, 0x00, 0x10, 0x10, 0x10, 0x00, 0x00, 0x10, 0x80,
   0x10, 0x10, 0x00, 0x00, 0x20, 0x08, 0x00, 0x00, 0x00, 0x18, 0x08, 0x20,
   0x00, 0x00, 0x40, 0x70, 0x26, 0x80, 0x10, 0x30, 0x48, 0x20, 0x7c, 0x80,
   0x00, 0x08, 0x20, 0x80, 0x10, 0x28, 0x88, 0xfe, 0x40, 0x20, 0x80, 0x40,
   0x40, 0x10, 0x08, 0x40, 0x60, 0x20, 0x40, 0x10, 0x44, 0x10, 0x00, 0x10,
   0x58, 0x20, 0x84, 0x02, 0x20, 0x40, 0x54, 0x18, 0x00, 0x42, 0x50, 0x08,
   0x08, 0x20, 0x80, 0x40, 0x40, 0x94, 0x44, 0x82, 0x40, 0x40, 0x00, 0x00,
   0xff, 0xf0, 0xff, 0x1f, 0xfc, 0x3f, 0xe0, 0x07, 0x54, 0x38, 0x38, 0x10,
   0xfe, 0x82, 0x04, 0x20, 0x24, 0x82, 0xfe, 0x84, 0x42, 0x5a, 0x88, 0xa6,
   0x00, 0x00, 0x00, 0x00, 0x40, 0x00, 0x00, 0x00, 0x00, 0xf8, 0x20, 0x20,
   0x20, 0x88, 0x18, 0x08, 0x70, 0x20, 0x78, 0xa8, 0x08, 0x78, 0x88, 0x20,
   0x78, 0x20, 0x40, 0x70, 0x48, 0x18, 0xa8, 0x78, 0xa8, 0xa8, 0x78, 0x08,
   0x00, 0x00, 0x10, 0x38, 0x00, 0x00, 0x00, 0xfe, 0x92, 0xa2, 0x42, 0x00,
   0x20, 0x08, 0x00, 0x10, 0x18, 0x00, 0x00, 0x02, 0x86, 0x10, 0x02, 0x82,
   0xfe, 0x82, 0x82, 0x10, 0x82, 0x82, 0x18, 0x18, 0x20, 0x00, 0x08, 0x00,
   0x92, 0x82, 0x82, 0x82, 0x84, 0x02, 0x02, 0x82, 0x82, 0x10, 0x42, 0x22,
   0x04, 0x82, 0xc2, 0x82, 0x02, 0xc6, 0x42, 0x82, 0x10, 0x82, 0x44, 0xaa,
   0x82, 0x10, 0x02, 0x10, 0x10, 0x10, 0x00, 0x00, 0x00, 0x42, 0x84, 0x82,
   0x42, 0x82, 0x08, 0xc4, 0x84, 0x10, 0x20, 0x24, 0x10, 0x92, 0x84, 0x82,
   0x84, 0x42, 0x04, 0x80, 0x08, 0x42, 0x28, 0xaa, 0x28, 0x88, 0x04, 0x10,
   0x10, 0x10, 0x00, 0x00, 0x00, 0x00, 0xff, 0xff, 0xff, 0xff, 0xff, 0xff,
   0x01, 0x03, 0x07, 0x0f, 0x1f, 0x3f, 0x7f, 0x10, 0x00, 0x10, 0x10, 0x10,
   0x00, 0x00, 0x10, 0x80, 0x10, 0x10, 0x00, 0x00, 0x20, 0x08, 0x00, 0x00,
   0x00, 0x24, 0x08, 0x20, 0x02, 0x00, 0x20, 0x10, 0x20, 0x40, 0x10, 0x28,
   0x08, 0x20, 0x40, 0x40, 0x00, 0x08, 0x20, 0x40, 0x10, 0x24, 0x84, 0x10,
   0x20, 0x10, 0x80, 0x20, 0x20, 0x28, 0x08, 0x20, 0x20, 0x10, 0x20, 0x10,
   0x04, 0x10, 0x00, 0x28, 0x96, 0x10, 0x84, 0x02, 0x10, 0x80, 0x92, 0x10,
   0x00, 0x42, 0x88, 0x08, 0x08, 0x20, 0x80, 0x20, 0x20, 0x54, 0x24, 0x82,
   0x20, 0x20, 0x00, 0x00, 0x00, 0x10, 0x10, 0x10, 0xfc, 0x3f, 0xe0, 0x07,
   0x10, 0x38, 0x38, 0x10, 0xfe, 0x82, 0x04, 0x20, 0x24, 0x82, 0x20, 0x84,
   0x42, 0x6e, 0x88, 0x44, 0x00, 0x00, 0x00, 0x00, 0x80, 0x00, 0x00, 0x00,
   0x00, 0x88, 0x50, 0x50, 0x20, 0xa8, 0x28, 0x08, 0x80, 0x20, 0x08, 0xa8,
   0x08, 0x28, 0x88, 0x20, 0x08, 0x20, 0x20, 0x80, 0xf8, 0x28, 0xc8, 0x88,
   0xc8, 0xa8, 0x88, 0x08, 0x00, 0x00, 0x10, 0x10, 0x00, 0x08, 0x00, 0x44,
   0x7c, 0xa0, 0x62, 0x00, 0x20, 0x08, 0x00, 0x00, 0x18, 0x00, 0x18, 0x00,
   0x86, 0x10, 0x02, 0x44, 0x40, 0x44, 0x44, 0x10, 0x44, 0x44, 0x18, 0x18,
   0x40, 0x00, 0x04, 0x10, 0x92, 0x82, 0x42, 0x44, 0x44, 0x02, 0x02, 0xc4,
   0x82, 0x10, 0x22, 0x42, 0x04, 0x82, 0x82, 0x44, 0x02, 0x44, 0x42, 0x44,
   0x10, 0x82, 0x28, 0x44, 0x82, 0x10, 0x02, 0x10, 0x10, 0x10, 0x00, 0x00,
   0x00, 0x62, 0x4c, 0x44, 0x64, 0x44, 0x08, 0xb8, 0x84, 0x10, 0x20, 0x44,
   0x10, 0x92, 0x84, 0x44, 0x4c, 0x64, 0x04, 0x82, 0x48, 0x62, 0x10, 0x44,
   0x44, 0x50, 0x02, 0x10, 0x10, 0x10, 0x00, 0x00, 0x00, 0xff, 0xff, 0xff,
   0xff, 0xff, 0xff, 0xff, 0x01, 0x03, 0x07, 0x0f, 0x1f, 0x3f, 0x7f, 0x10,
   0x00, 0x10, 0x10, 0x10, 0x00, 0x00, 0x10, 0x80, 0x10, 0x10, 0x00, 0x00,
   0x10, 0x10, 0x00, 0x00, 0x00, 0x24, 0x00, 0x20, 0x04, 0x00, 0x10, 0x08,
   0x20, 0x20, 0x10, 0x24, 0x08, 0x20, 0x40, 0x20, 0x00, 0x04, 0x20, 0x20,
   0x10, 0x22, 0x84, 0x10, 0x10, 0x08, 0x80, 0x10, 0x10, 0x44, 0x08, 0x10,
   0x10, 0x08, 0x10, 0x08, 0x04, 0x08, 0x00, 0x44, 0x10, 0x08, 0x82, 0xfc,
   0x08, 0x80, 0x92, 0x20, 0x7e, 0xbe, 0x04, 0x08, 0x08, 0x20, 0x80, 0x10,
   0x20, 0x34, 0x14, 0x82, 0x10, 0x10, 0x00, 0x00, 0x00, 0x10, 0x10, 0x10,
   0xfe, 0x7f, 0xc0, 0x03, 0x38, 0x10, 0x10, 0x38, 0x7c, 0x44, 0x02, 0x40,
   0x42, 0x82, 0x20, 0x82, 0x42, 0x40, 0x84, 0x24, 0x00, 0x00, 0x00, 0x00,
   0x00, 0x00, 0x00, 0x00, 0x00, 0x88, 0x88, 0x88, 0x20, 0x48, 0x48, 0x08,
   0x88, 0x20, 0x08, 0x88, 0x08, 0x48, 0x88, 0x20, 0x08, 0x20, 0x10, 0x88,
   0x40, 0x48, 0x88, 0x88, 0x88, 0x88, 0x88, 0x88, 0x00, 0x00, 0x10, 0x10,
   0x00, 0x08, 0x00, 0x44, 0x10, 0x40, 0x9c, 0x00, 0x40, 0x04, 0x00, 0x00,
   0x10, 0x00, 0x18, 0x00, 0x7c, 0x38, 0xfe, 0x38, 0x40, 0x38, 0x38, 0x10,
   0x38, 0x38, 0x00, 0x10, 0x00, 0x00, 0x00, 0x10, 0x6c, 0x82, 0x3e, 0x38,
   0x3e, 0xfe, 0x02, 0xb8, 0x82, 0x38, 0x1c, 0x82, 0xfc, 0x82, 0x82, 0x38,
   0x02, 0xb8, 0x82, 0x38, 0x10, 0x7c, 0x10, 0x44, 0x82, 0x10, 0xfe, 0x70,
   0x10, 0x1c, 0x00, 0xfe, 0x00, 0x5c, 0x34, 0x38, 0x58, 0x38, 0x08, 0x82,
   0x84, 0x10, 0x20, 0x84, 0x10, 0x92, 0x84, 0x38, 0x34, 0x58, 0x04, 0x7c,
   0x30, 0x5c, 0x10, 0x44, 0x82, 0x20, 0xfe, 0x60, 0x10, 0x0c, 0x00, 0x00,
   0x00, 0xff, 0xff, 0xff, 0xff, 0xff, 0xff, 0xff, 0x01, 0x03, 0x07, 0x0f,
   0x1f, 0x3f, 0x7f, 0x10, 0x00, 0x10, 0x10, 0x10, 0x00, 0x00, 0x10, 0x80,
   0x10, 0x10, 0x00, 0x00, 0x10, 0x10, 0x00, 0x00, 0x00, 0x18, 0x00, 0x3c,
   0x08, 0x00, 0x0c, 0x06, 0x20, 0x18, 0xfe, 0x22, 0x08, 0xfe, 0x7e, 0x18,
   0x00, 0x02, 0x20, 0x18, 0xfe, 0x20, 0x62, 0x10, 0x0c, 0x04, 0xfe, 0x08,
   0x0e, 0x82, 0xf0, 0x0c, 0x0c, 0x06, 0x0c, 0x06, 0x04, 0x06, 0xfe, 0x02,
   0x10, 0x06, 0x00, 0x00, 0x04, 0x00, 0x10, 0x40, 0x80, 0x80, 0x02, 0xf0,
   0x08, 0xfe, 0xfe, 0x0c, 0x18, 0x12, 0x0c, 0xfe, 0x0c, 0x0e, 0x00, 0x00,
   0x00, 0x10, 0x10, 0x10, 0xfe, 0x7f, 0xc0, 0x03, 0x7c, 0x10, 0x10, 0x7c,
   0x38, 0x38, 0x02, 0x40, 0x42, 0xc2, 0x20, 0xc2, 0x7e, 0x60, 0xc2, 0x14,
   0x00, 0x00, 0x00, 0x00, 0x00, 0x00, 0x00, 0x00, 0x00, 0x88, 0x88, 0x88,
   0x20, 0xb0, 0x88, 0xf8, 0x70, 0x20, 0x08, 0x88, 0xf8, 0x88, 0x70, 0x70,
   0xf8, 0x70, 0xf8, 0x70, 0x40, 0x88, 0x88, 0x78, 0x88, 0x88, 0x78, 0x70,
   0x00, 0x00, 0x00, 0x00, 0x00, 0x00, 0x00, 0x00, 0x10, 0x00, 0x00, 0x00,
   0x00, 0x00, 0x00, 0x00, 0x08, 0x00, 0x00, 0x00, 0x00, 0x00, 0x00, 0x00,
   0x00, 0x00, 0x00, 0x00, 0x00, 0x00, 0x00, 0x08, 0x00, 0x00, 0x00, 0x00,
   0x00, 0x00, 0x00, 0x00, 0x00, 0x00, 0x00, 0x00, 0x00, 0x00, 0x00, 0x00,
   0x00, 0x00, 0x00, 0x00, 0x00, 0x00, 0x00, 0x00, 0x00, 0x00, 0x00, 0x00,
   0x00, 0x00, 0x00, 0x00, 0x00, 0x00, 0x00, 0x00, 0x00, 0x00, 0x00, 0x00,
   0x00, 0x00, 0x00, 0x44, 0x00, 0x00, 0x24, 0x00, 0x00, 0x00, 0x00, 0x00,
   0x04, 0x40, 0x00, 0x00, 0x00, 0x00, 0x00, 0x00, 0x00, 0x10, 0x00, 0x00,
   0x00, 0x00, 0x00, 0x00, 0xff, 0xff, 0xff, 0xff, 0xff, 0xff, 0xff, 0xff,
   0x01, 0x03, 0x07, 0x0f, 0x1f, 0x3f, 0x7f, 0x10, 0x00, 0x10, 0x10, 0x10,
   0x00, 0x00, 0x10, 0x80, 0x10, 0x10, 0x00, 0x00, 0x10, 0x10, 0x00, 0x00,
   0x00, 0x00, 0x00, 0x00, 0x00, 0x00, 0x00, 0x00, 0x00, 0x00, 0x00, 0x00,
   0x00, 0x00, 0x00, 0x00, 0x00, 0x00, 0x00, 0x00, 0x00, 0x00, 0x00, 0x00,
   0x00, 0x00, 0x00, 0x00, 0x00, 0x00, 0x00, 0x00, 0x00, 0x00, 0x00, 0x00,
   0x00, 0x00, 0x00, 0x00, 0x00, 0x00, 0x00, 0x00, 0x00, 0x00, 0x00, 0x00,
   0x00, 0x00, 0x00, 0x00, 0x00, 0x00, 0x00, 0x00, 0x00, 0x00, 0x00, 0x00,
   0x00, 0x00, 0x00, 0x00, 0x00, 0x10, 0x10, 0x10, 0xff, 0xff, 0x80, 0x01,
   0x00, 0x00, 0x00, 0x00, 0x00, 0x00, 0x01, 0x80, 0x81, 0x00, 0x00, 0x00,
   0x00, 0x00, 0x00, 0x00, 0x00, 0x00, 0x00, 0x00, 0x00, 0x00, 0x00, 0x00,
   0x00, 0x00, 0x00, 0x00, 0x00, 0x00, 0x00, 0x00, 0x00, 0x00, 0x00, 0x00,
   0x00, 0x00, 0x00, 0x00, 0x00, 0x00, 0x00, 0x00, 0x00, 0x00, 0x00, 0x00,
   0x00, 0x00, 0x00, 0x00, 0x00, 0x00, 0x00, 0x00, 0x00, 0x00, 0x00, 0x00,
   0x00, 0x00, 0x00, 0x00, 0x00, 0x00, 0x00, 0x00, 0x00, 0x00, 0x00, 0x00,
   0x00, 0x00, 0x00, 0x00, 0x00, 0x00, 0x00, 0x00, 0x00, 0x00, 0x00, 0x00,
   0x00, 0x00, 0x00, 0x00, 0x00, 0x00, 0x00, 0x00, 0x00, 0x00, 0x00, 0x00,
   0x00, 0x00, 0x00, 0x00, 0x00, 0x00, 0x00, 0x00, 0x00, 0x00, 0x00, 0x00,
   0x00, 0x00, 0x00, 0x00, 0x00, 0x00, 0x00, 0x00, 0x00, 0x00, 0x00, 0x00,
   0x00, 0x00, 0x00, 0x00, 0x00, 0x00, 0x00, 0x38, 0x00, 0x00, 0x18, 0x00,
   0x00, 0x00, 0x00, 0x00, 0x04, 0x40, 0x00, 0x00, 0x00, 0x00, 0x00, 0x00,
   0x00, 0x0c, 0x00, 0x00, 0x00, 0x00, 0x00, 0x00, 0xff, 0xff, 0xff, 0xff,
   0xff, 0xff, 0xff, 0xff, 0x01, 0x03, 0x07, 0x0f, 0x1f, 0x3f, 0x7f, 0x10,
   0x00, 0x10, 0x10, 0x10, 0x00, 0x00, 0x10, 0x80, 0x10, 0x10, 0x00, 0x00,
   0x10, 0x10, 0x00, 0x00, 0x00, 0x00, 0x00, 0x00, 0x00, 0x00, 0x00, 0x00,
   0x00, 0x00, 0x00, 0x00, 0x00, 0x00, 0x00, 0x00, 0x00, 0x00, 0x00, 0x00,
   0x00, 0x00, 0x00, 0x00, 0x00, 0x00, 0x00, 0x00, 0x00, 0x00, 0x00, 0x00,
   0x00, 0x00, 0x00, 0x00, 0x00, 0x00, 0x00, 0x00, 0x00, 0x00, 0x00, 0x00,
   0x00, 0x00, 0x00, 0x00, 0x00, 0x00, 0x00, 0x00, 0x00, 0x00, 0x00, 0x00,
   0x00, 0x00, 0x00, 0x00, 0x00, 0x00, 0x00, 0x00, 0x00, 0x10, 0x10, 0x10,
   0xff, 0xff, 0x80, 0x01, 0x00, 0x00, 0x00, 0x00, 0x00, 0x00, 0x01, 0x80,
   0x81, 0x00, 0x00, 0x00, 0x00, 0x00, 0x00, 0x00, 0x00, 0x00, 0x00, 0x00,
   0x00, 0x00, 0x00, 0x00 };
