/* n88_normal_chars.xbm --- PC-8801 series normal characters.
   There are 256 characters in this image file.
   One character size is 8x16 bits.

LEGAL NOTICE:
   This file is in the exception of the Japanese copyright laws.
   If you are in Japan, you can use it as Public Domain Software (PDS).
   If you are out of Japan, you may follow the laws of your area. */
#define n88_normal_chars_width 2048
#define n88_normal_chars_height 16
static unsigned char n88_normal_chars_bits[] = {
   0x00, 0x0e, 0x0e, 0x0e, 0x0e, 0x07, 0x04, 0x0e, 0x0e, 0x0a, 0x02, 0x0a,
   0x3c, 0x1c, 0x0e, 0x0e, 0x0e, 0x0e, 0x0e, 0x0e, 0x0e, 0x12, 0x0e, 0x0e,
   0x1c, 0x0e, 0x0e, 0x0e, 0x00, 0x00, 0x00, 0x00, 0x00, 0x10, 0x24, 0x24,
   0x10, 0x00, 0x0c, 0x20, 0x20, 0x04, 0x10, 0x00, 0x00, 0x00, 0x00, 0x00,
   0x3c, 0x10, 0x3c, 0x3c, 0x20, 0x7e, 0x38, 0x7e, 0x3c, 0x3c, 0x00, 0x00,
   0x70, 0x00, 0x0e, 0x3c, 0x38, 0x18, 0x3e, 0x38, 0x1e, 0x7e, 0x7e, 0x38,
   0x42, 0x38, 0x70, 0x42, 0x02, 0x42, 0x42, 0x18, 0x3e, 0x18, 0x3e, 0x3c,
   0x7c, 0x42, 0x42, 0x42, 0x42, 0x44, 0x7e, 0x3c, 0x44, 0x3c, 0x10, 0x00,
   0x20, 0x00, 0x02, 0x00, 0x40, 0x00, 0x30, 0x00, 0x02, 0x10, 0x20, 0x02,
   0x18, 0x00, 0x00, 0x00, 0x00, 0x00, 0x00, 0x00, 0x08, 0x00, 0x00, 0x00,
   0x00, 0x00, 0x00, 0x70, 0x10, 0x0e, 0x0c, 0x00, 0x00, 0x00, 0x00, 0x00,
   0x00, 0x00, 0x00, 0xff, 0x01, 0x03, 0x07, 0x0f, 0x1f, 0x3f, 0x7f, 0x10,
   0x10, 0x00, 0x10, 0x10, 0xff, 0x00, 0x10, 0x80, 0x00, 0x00, 0x10, 0x10,
   0x00, 0x00, 0x10, 0x10, 0x00, 0x00, 0x38, 0x00, 0x00, 0x00, 0x00, 0x00,
   0x00, 0x00, 0x00, 0x00, 0x00, 0x00, 0x00, 0x00, 0x00, 0x7e, 0x40, 0x10,
   0x00, 0x10, 0x08, 0x10, 0x78, 0x04, 0x00, 0x24, 0x00, 0x7e, 0x04, 0x42,
   0x78, 0x20, 0x00, 0x3c, 0x08, 0x10, 0x00, 0x00, 0x10, 0x40, 0x08, 0x02,
   0x00, 0x00, 0x10, 0x7e, 0x00, 0x20, 0x00, 0x00, 0x04, 0x00, 0x7e, 0x3c,
   0x42, 0x14, 0x04, 0x00, 0x00, 0x00, 0x08, 0x0e, 0x00, 0x10, 0x10, 0x10,
   0x80, 0x01, 0xff, 0xff, 0x10, 0x6c, 0x10, 0x38, 0x00, 0x00, 0x80, 0x01,
   0x81, 0xfe, 0x02, 0xfc, 0xfe, 0x20, 0x00, 0x5c, 0x00, 0x00, 0x00, 0x00,
   0x00, 0x00, 0x00, 0x00, 0x00, 0x0e, 0x0e, 0x0e, 0x0e, 0x07, 0x04, 0x0e,
   0x0e, 0x0a, 0x02, 0x0a, 0x3c, 0x1c, 0x0e, 0x0e, 0x0e, 0x0e, 0x0e, 0x0e,
   0x0e, 0x12, 0x0e, 0x0e, 0x1c, 0x0e, 0x0e, 0x0e, 0x00, 0x00, 0x00, 0x00,
   0x00, 0x10, 0x24, 0x24, 0x10, 0x00, 0x0c, 0x20, 0x20, 0x04, 0x10, 0x00,
   0x00, 0x00, 0x00, 0x00, 0x3c, 0x10, 0x3c, 0x3c, 0x20, 0x7e, 0x38, 0x7e,
   0x3c, 0x3c, 0x00, 0x00, 0x70, 0x00, 0x0e, 0x3c, 0x38, 0x18, 0x3e, 0x38,
   0x1e, 0x7e, 0x7e, 0x38, 0x42, 0x38, 0x70, 0x42, 0x02, 0x42, 0x42, 0x18,
   0x3e, 0x18, 0x3e, 0x3c, 0x7c, 0x42, 0x42, 0x42, 0x42, 0x44, 0x7e, 0x3c,
   0x44, 0x3c, 0x10, 0x00, 0x20, 0x00, 0x02, 0x00, 0x40, 0x00, 0x30, 0x00,
   0x02, 0x10, 0x20, 0x02, 0x18, 0x00, 0x00, 0x00, 0x00, 0x00, 0x00, 0x00,
   0x08, 0x00, 0x00, 0x00, 0x00, 0x00, 0x00, 0x70, 0x10, 0x0e, 0x0c, 0x00,
   0x00, 0x00, 0x00, 0x00, 0x00, 0x00, 0x00, 0xff, 0x01, 0x03, 0x07, 0x0f,
   0x1f, 0x3f, 0x7f, 0x10, 0x10, 0x00, 0x10, 0x10, 0xff, 0x00, 0x10, 0x80,
   0x00, 0x00, 0x10, 0x10, 0x00, 0x00, 0x10, 0x10, 0x00, 0x00, 0x38, 0x00,
   0x00, 0x00, 0x00, 0x00, 0x00, 0x00, 0x00, 0x00, 0x00, 0x00, 0x00, 0x00,
   0x00, 0x7e, 0x40, 0x10, 0x00, 0x10, 0x08, 0x10, 0x78, 0x04, 0x00, 0x24,
   0x00, 0x7e, 0x04, 0x42, 0x78, 0x20, 0x00, 0x3c, 0x08, 0x10, 0x00, 0x00,
   0x10, 0x40, 0x08, 0x02, 0x00, 0x00, 0x10, 0x7e, 0x00, 0x20, 0x00, 0x00,
   0x04, 0x00, 0x7e, 0x3c, 0x42, 0x14, 0x04, 0x00, 0x00, 0x00, 0x08, 0x0e,
   0x00, 0x10, 0x10, 0x10, 0x80, 0x01, 0xff, 0xff, 0x10, 0x6c, 0x10, 0x38,
   0x00, 0x00, 0x80, 0x01, 0x81, 0xfe, 0x02, 0xfc, 0xfe, 0x20, 0x00, 0x5c,
   0x00, 0x00, 0x00, 0x00, 0x00, 0x00, 0x00, 0x00, 0x00, 0x02, 0x02, 0x02,
   0x02, 0x01, 0x0a, 0x12, 0x12, 0x0a, 0x02, 0x0a, 0x02, 0x02, 0x02, 0x02,
   0x12, 0x12, 0x12, 0x12, 0x12, 0x16, 0x02, 0x02, 0x02, 0x02, 0x02, 0x02,
   0x10, 0x08, 0x10, 0x10, 0x00, 0x10, 0x24, 0x24, 0x78, 0x46, 0x12, 0x10,
   0x10, 0x08, 0x54, 0x10, 0x00, 0x00, 0x00, 0x40, 0x42, 0x18, 0x42, 0x42,
   0x30, 0x02, 0x04, 0x42, 0x42, 0x42, 0x00, 0x00, 0x18, 0x00, 0x18, 0x42,
   0x44, 0x24, 0x44, 0x44, 0x24, 0x02, 0x02, 0x44, 0x42, 0x10, 0x20, 0x22,
   0x02, 0x66, 0x46, 0x24, 0x42, 0x24, 0x42, 0x42, 0x10, 0x42, 0x42, 0x42,
   0x42, 0x44, 0x40, 0x04, 0x44, 0x20, 0x28, 0x00, 0x40, 0x00, 0x02, 0x00,
   0x40, 0x00, 0x48, 0x00, 0x02, 0x00, 0x00, 0x02, 0x10, 0x00, 0x00, 0x00,
   0x00, 0x00, 0x00, 0x00, 0x08, 0x00, 0x00, 0x00, 0x00, 0x00, 0x00, 0x08,
   0x10, 0x10, 0x92, 0x00, 0x00, 0x00, 0x00, 0x00, 0x00, 0x00, 0xff, 0xff,
   0x01, 0x03, 0x07, 0x0f, 0x1f, 0x3f, 0x7f, 0x10, 0x10, 0x00, 0x10, 0x10,
   0x00, 0x00, 0x10, 0x80, 0x00, 0x00, 0x10, 0x10, 0x00, 0x00, 0x10, 0x10,
   0x00, 0x00, 0x08, 0x00, 0x00, 0x00, 0x7e, 0x00, 0x00, 0x00, 0x00, 0x00,
   0x00, 0x00, 0x00, 0x00, 0x00, 0x40, 0x20, 0x7e, 0x7c, 0x7e, 0x7e, 0x7c,
   0x44, 0x7c, 0x7e, 0x7e, 0x0e, 0x40, 0x7e, 0x42, 0x44, 0x1c, 0x4a, 0x00,
   0x08, 0x10, 0x3c, 0x7c, 0x7c, 0x40, 0x10, 0x02, 0x7e, 0x08, 0x7c, 0x40,
   0x3c, 0x10, 0x40, 0x7e, 0x04, 0x1c, 0x40, 0x00, 0x42, 0x14, 0x04, 0x7e,
   0x7e, 0x0e, 0x12, 0x0a, 0x00, 0x10, 0x10, 0x10, 0xc0, 0x03, 0xfe, 0x7f,
   0x38, 0xfe, 0x38, 0x38, 0x3c, 0x3c, 0x40, 0x02, 0x42, 0x92, 0x7e, 0x84,
   0x82, 0x77, 0x18, 0x48, 0x00, 0x00, 0x00, 0x00, 0x02, 0x00, 0x00, 0x00,
   0x00, 0x02, 0x02, 0x02, 0x02, 0x01, 0x0a, 0x12, 0x12, 0x0a, 0x02, 0x0a,
   0x02, 0x02, 0x02, 0x02, 0x12, 0x12, 0x12, 0x12, 0x12, 0x16, 0x02, 0x02,
   0x02, 0x02, 0x02, 0x02, 0x10, 0x08, 0x10, 0x10, 0x00, 0x10, 0x24, 0x24,
   0x78, 0x46, 0x12, 0x10, 0x10, 0x08, 0x54, 0x10, 0x00, 0x00, 0x00, 0x40,
   0x42, 0x18, 0x42, 0x42, 0x30, 0x02, 0x04, 0x42, 0x42, 0x42, 0x00, 0x00,
   0x18, 0x00, 0x18, 0x42, 0x44, 0x24, 0x44, 0x44, 0x24, 0x02, 0x02, 0x44,
   0x42, 0x10, 0x20, 0x22, 0x02, 0x66, 0x46, 0x24, 0x42, 0x24, 0x42, 0x42,
   0x10, 0x42, 0x42, 0x42, 0x42, 0x44, 0x40, 0x04, 0x44, 0x20, 0x28, 0x00,
   0x40, 0x00, 0x02, 0x00, 0x40, 0x00, 0x48, 0x00, 0x02, 0x00, 0x00, 0x02,
   0x10, 0x00, 0x00, 0x00, 0x00, 0x00, 0x00, 0x00, 0x08, 0x00, 0x00, 0x00,
   0x00, 0x00, 0x00, 0x08, 0x10, 0x10, 0x92, 0x00, 0x00, 0x00, 0x00, 0x00,
   0x00, 0x00, 0xff, 0xff, 0x01, 0x03, 0x07, 0x0f, 0x1f, 0x3f, 0x7f, 0x10,
   0x10, 0x00, 0x10, 0x10, 0x00, 0x00, 0x10, 0x80, 0x00, 0x00, 0x10, 0x10,
   0x00, 0x00, 0x10, 0x10, 0x00, 0x00, 0x08, 0x00, 0x00, 0x00, 0x7e, 0x00,
   0x00, 0x00, 0x00, 0x00, 0x00, 0x00, 0x00, 0x00, 0x00, 0x40, 0x20, 0x7e,
   0x7c, 0x7e, 0x7e, 0x7c, 0x44, 0x7c, 0x7e, 0x7e, 0x0e, 0x40, 0x7e, 0x42,
   0x44, 0x1c, 0x4a, 0x00, 0x08, 0x10, 0x3c, 0x7c, 0x7c, 0x40, 0x10, 0x02,
   0x7e, 0x08, 0x7c, 0x40, 0x3c, 0x10, 0x40, 0x7e, 0x04, 0x1c, 0x40, 0x00,
   0x42, 0x14, 0x04, 0x7e, 0x7e, 0x0e, 0x12, 0x0a, 0x00, 0x10, 0x10, 0x10,
   0xc0, 0x03, 0xfe, 0x7f, 0x38, 0xfe, 0x38, 0x38, 0x3c, 0x3c, 0x40, 0x02,
   0x42, 0x92, 0x7e, 0x84, 0x82, 0x77, 0x18, 0x48, 0x00, 0x00, 0x00, 0x00,
   0x02, 0x00, 0x00, 0x00, 0x00, 0x0e, 0x0e, 0x0e, 0x0e, 0x07, 0x0e, 0x0e,
   0x0e, 0x0e, 0x02, 0x0e, 0x02, 0x02, 0x0e, 0x0e, 0x12, 0x12, 0x12, 0x12,
   0x12, 0x1a, 0x0e, 0x0e, 0x02, 0x0e, 0x0e, 0x0e, 0x20, 0x04, 0x38, 0x10,
   0x00, 0x10, 0x24, 0x7e, 0x14, 0x26, 0x12, 0x08, 0x08, 0x10, 0x38, 0x10,
   0x00, 0x00, 0x00, 0x20, 0x62, 0x14, 0x40, 0x40, 0x28, 0x1e, 0x02, 0x20,
   0x42, 0x42, 0x10, 0x10, 0x0c, 0x7e, 0x30, 0x40, 0x52, 0x42, 0x44, 0x02,
   0x44, 0x02, 0x02, 0x02, 0x42, 0x10, 0x20, 0x12, 0x02, 0x5a, 0x4a, 0x42,
   0x42, 0x42, 0x42, 0x02, 0x10, 0x42, 0x42, 0x42, 0x24, 0x44, 0x20, 0x04,
   0x28, 0x20, 0x44, 0x00, 0x80, 0x3c, 0x3a, 0x3c, 0x5c, 0x3c, 0x08, 0x5c,
   0x3a, 0x18, 0x30, 0x22, 0x10, 0x6e, 0x3a, 0x3c, 0x3a, 0x5c, 0x3a, 0x7c,
   0x3e, 0x42, 0x42, 0x82, 0x42, 0x42, 0x7e, 0x08, 0x00, 0x10, 0x60, 0x00,
   0x00, 0x00, 0x00, 0x00, 0x00, 0xff, 0xff, 0xff, 0x01, 0x03, 0x07, 0x0f,
   0x1f, 0x3f, 0x7f, 0x10, 0x10, 0x00, 0x10, 0x10, 0x00, 0x00, 0x10, 0x80,
   0x00, 0x00, 0x10, 0x10, 0x00, 0x00, 0x10, 0x10, 0x00, 0x00, 0x08, 0x00,
   0x00, 0x00, 0x40, 0x7c, 0x20, 0x10, 0x00, 0x20, 0x08, 0x00, 0x3c, 0x00,
   0x00, 0x40, 0x10, 0x42, 0x10, 0x10, 0x48, 0x10, 0x42, 0x12, 0x40, 0x24,
   0x00, 0x20, 0x44, 0x44, 0x46, 0x10, 0x4a, 0x7e, 0x08, 0x7e, 0x00, 0x40,
   0x20, 0x40, 0x20, 0x7e, 0x40, 0x14, 0x10, 0x40, 0x00, 0x08, 0x40, 0x08,
   0x7e, 0x10, 0x40, 0x7e, 0x42, 0x14, 0x04, 0x42, 0x42, 0x40, 0x04, 0x0e,
   0xff, 0xf0, 0xff, 0x1f, 0xe0, 0x07, 0xfc, 0x3f, 0x7c, 0xfe, 0x7c, 0xfe,
   0x7e, 0x42, 0x20, 0x04, 0x24, 0x92, 0x12, 0xfc, 0x82, 0x25, 0x24, 0xfe,
   0x00, 0x00, 0x00, 0x00, 0x04, 0x00, 0x00, 0x00, 0x00, 0x0e, 0x0e, 0x0e,
   0x0e, 0x07, 0x0e, 0x0e, 0x0e, 0x0e, 0x02, 0x0e, 0x02, 0x02, 0x0e, 0x0e,
   0x12, 0x12, 0x12, 0x12, 0x12, 0x1a, 0x0e, 0x0e, 0x02, 0x0e, 0x0e, 0x0e,
   0x20, 0x04, 0x38, 0x10, 0x00, 0x10, 0x24, 0x7e, 0x14, 0x26, 0x12, 0x08,
   0x08, 0x10, 0x38, 0x10, 0x00, 0x00, 0x00, 0x20, 0x62, 0x14, 0x40, 0x40,
   0x28, 0x1e, 0x02, 0x20, 0x42, 0x42, 0x10, 0x10, 0x0c, 0x7e, 0x30, 0x40,
   0x52, 0x42, 0x44, 0x02, 0x44, 0x02, 0x02, 0x02, 0x42, 0x10, 0x20, 0x12,
   0x02, 0x5a, 0x4a, 0x42, 0x42, 0x42, 0x42, 0x02, 0x10, 0x42, 0x42, 0x42,
   0x24, 0x44, 0x20, 0x04, 0x28, 0x20, 0x44, 0x00, 0x80, 0x3c, 0x3a, 0x3c,
   0x5c, 0x3c, 0x08, 0x5c, 0x3a, 0x18, 0x30, 0x22, 0x10, 0x6e, 0x3a, 0x3c,
   0x3a, 0x5c, 0x3a, 0x7c, 0x3e, 0x42, 0x42, 0x82, 0x42, 0x42, 0x7e, 0x08,
   0x00, 0x10, 0x60, 0x00, 0x00, 0x00, 0x00, 0x00, 0x00, 0xff, 0xff, 0xff,
   0x01, 0x03, 0x07, 0x0f, 0x1f, 0x3f, 0x7f, 0x10, 0x10, 0x00, 0x10, 0x10,
   0x00, 0x00, 0x10, 0x80, 0x00, 0x00, 0x10, 0x10, 0x00, 0x00, 0x10, 0x10,
   0x00, 0x00, 0x08, 0x00, 0x00, 0x00, 0x40, 0x7c, 0x20, 0x10, 0x00, 0x20,
   0x08, 0x00, 0x3c, 0x00, 0x00, 0x40, 0x10, 0x42, 0x10, 0x10, 0x48, 0x10,
   0x42, 0x12, 0x40, 0x24, 0x00, 0x20, 0x44, 0x44, 0x46, 0x10, 0x4a, 0x7e,
   0x08, 0x7e, 0x00, 0x40, 0x20, 0x40, 0x20, 0x7e, 0x40, 0x14, 0x10, 0x40,
   0x00, 0x08, 0x40, 0x08, 0x7e, 0x10, 0x40, 0x7e, 0x42, 0x14, 0x04, 0x42,
   0x42, 0x40, 0x04, 0x0e, 0xff, 0xf0, 0xff, 0x1f, 0xe0, 0x07, 0xfc, 0x3f,
   0x7c, 0xfe, 0x7c, 0xfe, 0x7e, 0x42, 0x20, 0x04, 0x24, 0x92, 0x12, 0xfc,
   0x82, 0x25, 0x24, 0xfe, 0x00, 0x00, 0x00, 0x00, 0x04, 0x00, 0x00, 0x00,
   0x00, 0x58, 0x48, 0x42, 0x02, 0x31, 0x4a, 0x12, 0xf2, 0x0a, 0x72, 0x0a,
   0x22, 0x7c, 0x08, 0x08, 0xf2, 0x52, 0x72, 0xf2, 0x52, 0x92, 0x08, 0x72,
   0x1c, 0x02, 0x38, 0x02, 0x7e, 0x7e, 0x54, 0x10, 0x00, 0x10, 0x00, 0x24,
   0x38, 0x10, 0x0c, 0x00, 0x08, 0x10, 0x7c, 0x7c, 0x00, 0x7e, 0x00, 0x10,
   0x5a, 0x10, 0x30, 0x38, 0x24, 0x20, 0x3e, 0x10, 0x3c, 0x7c, 0x00, 0x00,
   0x06, 0x00, 0x60, 0x30, 0x6a, 0x7e, 0x3c, 0x02, 0x44, 0x1e, 0x1e, 0x72,
   0x7e, 0x10, 0x20, 0x0e, 0x02, 0x5a, 0x52, 0x42, 0x3e, 0x42, 0x3e, 0x3c,
   0x10, 0x42, 0x24, 0x5a, 0x18, 0x38, 0x18, 0x04, 0x7c, 0x20, 0x00, 0x00,
   0x00, 0x20, 0x46, 0x42, 0x62, 0x42, 0x3e, 0x62, 0x46, 0x10, 0x20, 0x12,
   0x10, 0x92, 0x46, 0x42, 0x46, 0x62, 0x46, 0x02, 0x08, 0x42, 0x42, 0x92,
   0x24, 0x42, 0x20, 0x04, 0x00, 0x20, 0x00, 0x00, 0x00, 0x00, 0x00, 0x00,
   0xff, 0xff, 0xff, 0xff, 0x01, 0x03, 0x07, 0x0f, 0x1f, 0x3f, 0x7f, 0x10,
   0x10, 0x00, 0x10, 0x10, 0x00, 0x00, 0x10, 0x80, 0x00, 0x00, 0x10, 0x10,
   0x00, 0x00, 0x20, 0x08, 0x00, 0x00, 0x08, 0x10, 0x00, 0x18, 0x7e, 0x40,
   0x10, 0x7c, 0x7c, 0x7c, 0x7c, 0x38, 0x20, 0x54, 0x7c, 0x28, 0x18, 0x42,
   0x10, 0x18, 0x48, 0x7c, 0x20, 0x10, 0x40, 0x24, 0x4e, 0x10, 0x24, 0x40,
   0x28, 0x7e, 0x4a, 0x10, 0x18, 0x10, 0x00, 0x28, 0x10, 0x20, 0x42, 0x02,
   0x40, 0x22, 0x10, 0x20, 0x3c, 0x04, 0x28, 0x7e, 0x44, 0x10, 0x7e, 0x40,
   0x42, 0x54, 0x44, 0x42, 0x42, 0x40, 0x00, 0x00, 0x00, 0x10, 0x10, 0x10,
   0xf0, 0x0f, 0xf8, 0x1f, 0xfe, 0xfe, 0xfe, 0xfe, 0x7e, 0x42, 0x10, 0x08,
   0x18, 0xfe, 0x3c, 0x84, 0xfe, 0xf7, 0x42, 0xe8, 0x00, 0x00, 0x00, 0x00,
   0x08, 0x00, 0x00, 0x00, 0x00, 0x58, 0x48, 0x42, 0x02, 0x31, 0x4a, 0x12,
   0xf2, 0x0a, 0x72, 0x0a, 0x22, 0x7c, 0x08, 0x08, 0xf2, 0x52, 0x72, 0xf2,
   0x52, 0x92, 0x08, 0x72, 0x1c, 0x02, 0x38, 0x02, 0x7e, 0x7e, 0x54, 0x10,
   0x00, 0x10, 0x00, 0x24, 0x38, 0x10, 0x0c, 0x00, 0x08, 0x10, 0x7c, 0x7c,
   0x00, 0x7e, 0x00, 0x10, 0x5a, 0x10, 0x30, 0x38, 0x24, 0x20, 0x3e, 0x10,
   0x3c, 0x7c, 0x00, 0x00, 0x06, 0x00, 0x60, 0x30, 0x6a, 0x7e, 0x3c, 0x02,
   0x44, 0x1e, 0x1e, 0x72, 0x7e, 0x10, 0x20, 0x0e, 0x02, 0x5a, 0x52, 0x42,
   0x3e, 0x42, 0x3e, 0x3c, 0x10, 0x42, 0x24, 0x5a, 0x18, 0x38, 0x18, 0x04,
   0x7c, 0x20, 0x00, 0x00, 0x00, 0x20, 0x46, 0x42, 0x62, 0x42, 0x3e, 0x62,
   0x46, 0x10, 0x20, 0x12, 0x10, 0x92, 0x46, 0x42, 0x46, 0x62, 0x46, 0x02,
   0x08, 0x42, 0x42, 0x92, 0x24, 0x42, 0x20, 0x04, 0x00, 0x20, 0x00, 0x00,
   0x00, 0x00, 0x00, 0x00, 0xff, 0xff, 0xff, 0xff, 0x01, 0x03, 0x07, 0x0f,
   0x1f, 0x3f, 0x7f, 0x10, 0x10, 0x00, 0x10, 0x10, 0x00, 0x00, 0x10, 0x80,
   0x00, 0x00, 0x10, 0x10, 0x00, 0x00, 0x20, 0x08, 0x00, 0x00, 0x08, 0x10,
   0x00, 0x18, 0x7e, 0x40, 0x10, 0x7c, 0x7c, 0x7c, 0x7c, 0x38, 0x20, 0x54,
   0x7c, 0x28, 0x18, 0x42, 0x10, 0x18, 0x48, 0x7c, 0x20, 0x10, 0x40, 0x24,
   0x4e, 0x10, 0x24, 0x40, 0x28, 0x7e, 0x4a, 0x10, 0x18, 0x10, 0x00, 0x28,
   0x10, 0x20, 0x42, 0x02, 0x40, 0x22, 0x10, 0x20, 0x3c, 0x04, 0x28, 0x7e,
   0x44, 0x10, 0x7e, 0x40, 0x42, 0x54, 0x44, 0x42, 0x42, 0x40, 0x00, 0x00,
   0x00, 0x10, 0x10, 0x10, 0xf0, 0x0f, 0xf8, 0x1f, 0xfe, 0xfe, 0xfe, 0xfe,
   0x7e, 0x42, 0x10, 0x08, 0x18, 0xfe, 0x3c, 0x84, 0xfe, 0xf7, 0x42, 0xe8,
   0x00, 0x00, 0x00, 0x00, 0x08, 0x00, 0x00, 0x00, 0x00, 0x5e, 0x2e, 0x2e,
   0x7e, 0x4f, 0x2a, 0x2e, 0x2e, 0x7a, 0x1e, 0x8a, 0x1c, 0x90, 0x3e, 0x7e,
   0x2e, 0x6e, 0x8e, 0x8e, 0x6e, 0x52, 0x9e, 0x9e, 0x90, 0x8e, 0x4e, 0x7e,
   0x20, 0x04, 0x10, 0x54, 0x00, 0x00, 0x00, 0x7e, 0x50, 0x08, 0x52, 0x00,
   0x08, 0x10, 0x38, 0x10, 0x00, 0x00, 0x00, 0x08, 0x46, 0x10, 0x0c, 0x40,
   0x7e, 0x40, 0x42, 0x08, 0x42, 0x40, 0x00, 0x00, 0x0c, 0x7e, 0x30, 0x08,
   0x32, 0x42, 0x44, 0x02, 0x44, 0x02, 0x02, 0x42, 0x42, 0x10, 0x20, 0x12,
   0x02, 0x42, 0x62, 0x42, 0x02, 0x52, 0x12, 0x40, 0x10, 0x42, 0x24, 0x5a,
   0x24, 0x10, 0x04, 0x04, 0x10, 0x20, 0x00, 0x00, 0x00, 0x3c, 0x42, 0x02,
   0x42, 0x7e, 0x08, 0x62, 0x42, 0x10, 0x20, 0x0a, 0x10, 0x92, 0x42, 0x42,
   0x46, 0x62, 0x02, 0x3c, 0x08, 0x42, 0x42, 0x92, 0x18, 0x62, 0x18, 0x08,
   0x00, 0x10, 0x00, 0x00, 0x00, 0x00, 0x00, 0xff, 0xff, 0xff, 0xff, 0xff,
   0x01, 0x03, 0x07, 0x0f, 0x1f, 0x3f, 0x7f, 0xff, 0xff, 0xff, 0x1f, 0xf0,
   0x00, 0xff, 0x10, 0x80, 0xf0, 0x1f, 0xf0, 0x1f, 0xc0, 0x07, 0xc0, 0x07,
   0x00, 0x1c, 0x00, 0x10, 0x04, 0x18, 0x40, 0x30, 0x18, 0x44, 0x10, 0x30,
   0x48, 0x20, 0x3c, 0x54, 0x00, 0x18, 0x14, 0x40, 0x10, 0x14, 0x48, 0x10,
   0x10, 0x10, 0x40, 0x20, 0x40, 0x18, 0x04, 0x20, 0x10, 0x10, 0x20, 0x10,
   0x28, 0x10, 0x00, 0x10, 0x38, 0x10, 0x42, 0x02, 0x20, 0x40, 0x54, 0x14,
   0x00, 0x12, 0x10, 0x08, 0x24, 0x10, 0x40, 0x20, 0x40, 0x54, 0x24, 0x42,
   0x40, 0x20, 0x00, 0x00, 0x00, 0x10, 0x10, 0x10, 0xf8, 0x1f, 0xf0, 0x0f,
   0xfe, 0x7c, 0x7c, 0xd6, 0x7e, 0x42, 0x08, 0x10, 0x18, 0x82, 0x14, 0xfc,
   0x82, 0x45, 0x3c, 0xdc, 0x00, 0x00, 0x00, 0x00, 0x10, 0x00, 0x00, 0x00,
   0x00, 0x5e, 0x2e, 0x2e, 0x7e, 0x4f, 0x2a, 0x2e, 0x2e, 0x7a, 0x1e, 0x8a,
   0x1c, 0x90, 0x3e, 0x7e, 0x2e, 0x6e, 0x8e, 0x8e, 0x6e, 0x52, 0x9e, 0x9e,
   0x90, 0x8e, 0x4e, 0x7e, 0x20, 0x04, 0x10, 0x54, 0x00, 0x00, 0x00, 0x7e,
   0x50, 0x08, 0x52, 0x00, 0x08, 0x10, 0x38, 0x10, 0x00, 0x00, 0x00, 0x08,
   0x46, 0x10, 0x0c, 0x40, 0x7e, 0x40, 0x42, 0x08, 0x42, 0x40, 0x00, 0x00,
   0x0c, 0x7e, 0x30, 0x08, 0x32, 0x42, 0x44, 0x02, 0x44, 0x02, 0x02, 0x42,
   0x42, 0x10, 0x20, 0x12, 0x02, 0x42, 0x62, 0x42, 0x02, 0x52, 0x12, 0x40,
   0x10, 0x42, 0x24, 0x5a, 0x24, 0x10, 0x04, 0x04, 0x10, 0x20, 0x00, 0x00,
   0x00, 0x3c, 0x42, 0x02, 0x42, 0x7e, 0x08, 0x62, 0x42, 0x10, 0x20, 0x0a,
   0x10, 0x92, 0x42, 0x42, 0x46, 0x62, 0x02, 0x3c, 0x08, 0x42, 0x42, 0x92,
   0x18, 0x62, 0x18, 0x08, 0x00, 0x10, 0x00, 0x00, 0x00, 0x00, 0x00, 0xff,
   0xff, 0xff, 0xff, 0xff, 0x01, 0x03, 0x07, 0x0f, 0x1f, 0x3f, 0x7f, 0xff,
   0xff, 0xff, 0x1f, 0xf0, 0x00, 0xff, 0x10, 0x80, 0xf0, 0x1f, 0xf0, 0x1f,
   0xc0, 0x07, 0xc0, 0x07, 0x00, 0x1c, 0x00, 0x10, 0x04, 0x18, 0x40, 0x30,
   0x18, 0x44, 0x10, 0x30, 0x48, 0x20, 0x3c, 0x54, 0x00, 0x18, 0x14, 0x40,
   0x10, 0x14, 0x48, 0x10, 0x10, 0x10, 0x40, 0x20, 0x40, 0x18, 0x04, 0x20,
   0x10, 0x10, 0x20, 0x10, 0x28, 0x10, 0x00, 0x10, 0x38, 0x10, 0x42, 0x02,
   0x20, 0x40, 0x54, 0x14, 0x00, 0x12, 0x10, 0x08, 0x24, 0x10, 0x40, 0x20,
   0x40, 0x54, 0x24, 0x42, 0x40, 0x20, 0x00, 0x00, 0x00, 0x10, 0x10, 0x10,
   0xf8, 0x1f, 0xf0, 0x0f, 0xfe, 0x7c, 0x7c, 0xd6, 0x7e, 0x42, 0x08, 0x10,
   0x18, 0x82, 0x14, 0xfc, 0x82, 0x45, 0x3c, 0xdc, 0x00, 0x00, 0x00, 0x00,
   0x10, 0x00, 0x00, 0x00, 0x00, 0x70, 0x10, 0x10, 0x20, 0x48, 0x18, 0x20,
   0xe0, 0x20, 0x30, 0xd8, 0x10, 0x70, 0x48, 0x20, 0xe0, 0x40, 0x60, 0xe0,
   0x50, 0x30, 0xb0, 0x70, 0xb0, 0xd8, 0x38, 0x08, 0x10, 0x08, 0x10, 0x38,
   0x00, 0x00, 0x00, 0x24, 0x3c, 0x64, 0x22, 0x00, 0x10, 0x08, 0x54, 0x10,
   0x10, 0x00, 0x18, 0x04, 0x42, 0x10, 0x02, 0x42, 0x20, 0x22, 0x42, 0x08,
   0x42, 0x20, 0x10, 0x10, 0x18, 0x00, 0x18, 0x00, 0x04, 0x42, 0x44, 0x44,
   0x24, 0x02, 0x02, 0x44, 0x42, 0x10, 0x22, 0x22, 0x02, 0x42, 0x42, 0x24,
   0x02, 0x24, 0x22, 0x42, 0x10, 0x42, 0x18, 0x66, 0x42, 0x10, 0x02, 0x04,
   0x7c, 0x20, 0x00, 0x00, 0x00, 0x22, 0x46, 0x42, 0x62, 0x02, 0x08, 0x5c,
   0x42, 0x10, 0x20, 0x16, 0x10, 0x92, 0x42, 0x42, 0x3a, 0x5c, 0x02, 0x40,
   0x48, 0x62, 0x24, 0x92, 0x24, 0x5c, 0x04, 0x08, 0x10, 0x10, 0x00, 0x00,
   0x00, 0x00, 0xff, 0xff, 0xff, 0xff, 0xff, 0xff, 0x01, 0x03, 0x07, 0x0f,
   0x1f, 0x3f, 0x7f, 0x10, 0x00, 0x10, 0x10, 0x10, 0x00, 0x00, 0x10, 0x80,
   0x10, 0x10, 0x00, 0x00, 0x20, 0x08, 0x00, 0x00, 0x00, 0x14, 0x00, 0x10,
   0x08, 0x00, 0x20, 0x10, 0x14, 0x40, 0x10, 0x28, 0x28, 0x20, 0x20, 0x40,
   0x00, 0x08, 0x12, 0x20, 0x10, 0x12, 0x48, 0x10, 0x08, 0x10, 0x40, 0x10,
   0x20, 0x24, 0x04, 0x10, 0x08, 0x10, 0x10, 0x08, 0x08, 0x08, 0x00, 0x28,
   0x54, 0x08, 0x42, 0x02, 0x10, 0x40, 0x54, 0x08, 0x3e, 0x3e, 0x28, 0x08,
   0x04, 0x10, 0x40, 0x10, 0x20, 0x34, 0x14, 0x42, 0x20, 0x10, 0x00, 0x00,
   0xff, 0xf0, 0xff, 0x1f, 0xfc, 0x3f, 0xe0, 0x07, 0x38, 0x38, 0x38, 0x10,
   0x7e, 0x42, 0x04, 0x20, 0x24, 0x82, 0x7e, 0x84, 0x82, 0xf7, 0x28, 0x4a,
   0x00, 0x00, 0x00, 0x00, 0x20, 0x00, 0x00, 0x00, 0x00, 0x70, 0x10, 0x10,
   0x20, 0x48, 0x18, 0x20, 0xe0, 0x20, 0x30, 0xd8, 0x10, 0x70, 0x48, 0x20,
   0xe0, 0x40, 0x60, 0xe0, 0x50, 0x30, 0xb0, 0x70, 0xb0, 0xd8, 0x38, 0x08,
   0x10, 0x08, 0x10, 0x38, 0x00, 0x00, 0x00, 0x24, 0x3c, 0x64, 0x22, 0x00,
   0x10, 0x08, 0x54, 0x10, 0x10, 0x00, 0x18, 0x04, 0x42, 0x10, 0x02, 0x42,
   0x20, 0x22, 0x42, 0x08, 0x42, 0x20, 0x10, 0x10, 0x18, 0x00, 0x18, 0x00,
   0x04, 0x42, 0x44, 0x44, 0x24, 0x02, 0x02, 0x44, 0x42, 0x10, 0x22, 0x22,
   0x02, 0x42, 0x42, 0x24, 0x02, 0x24, 0x22, 0x42, 0x10, 0x42, 0x18, 0x66,
   0x42, 0x10, 0x02, 0x04, 0x7c, 0x20, 0x00, 0x00, 0x00, 0x22, 0x46, 0x42,
   0x62, 0x02, 0x08, 0x5c, 0x42, 0x10, 0x20, 0x16, 0x10, 0x92, 0x42, 0x42,
   0x3a, 0x5c, 0x02, 0x40, 0x48, 0x62, 0x24, 0x92, 0x24, 0x5c, 0x04, 0x08,
   0x10, 0x10, 0x00, 0x00, 0x00, 0x00, 0xff, 0xff, 0xff, 0xff, 0xff, 0xff,
   0x01, 0x03, 0x07, 0x0f, 0x1f, 0x3f, 0x7f, 0x10, 0x00, 0x10, 0x10, 0x10,
   0x00, 0x00, 0x10, 0x80, 0x10, 0x10, 0x00, 0x00, 0x20, 0x08, 0x00, 0x00,
   0x00, 0x14, 0x00, 0x10, 0x08, 0x00, 0x20, 0x10, 0x14, 0x40, 0x10, 0x28,
   0x28, 0x20, 0x20, 0x40, 0x00, 0x08, 0x12, 0x20, 0x10, 0x12, 0x48, 0x10,
   0x08, 0x10, 0x40, 0x10, 0x20, 0x24, 0x04, 0x10, 0x08, 0x10, 0x10, 0x08,
   0x08, 0x08, 0x00, 0x28, 0x54, 0x08, 0x42, 0x02, 0x10, 0x40, 0x54, 0x08,
   0x3e, 0x3e, 0x28, 0x08, 0x04, 0x10, 0x40, 0x10, 0x20, 0x34, 0x14, 0x42,
   0x20, 0x10, 0x00, 0x00, 0xff, 0xf0, 0xff, 0x1f, 0xfc, 0x3f, 0xe0, 0x07,
   0x38, 0x38, 0x38, 0x10, 0x7e, 0x42, 0x04, 0x20, 0x24, 0x82, 0x7e, 0x84,
   0x82, 0xf7, 0x28, 0x4a, 0x00, 0x00, 0x00, 0x00, 0x20, 0x00, 0x00, 0x00,
   0x00, 0x50, 0x28, 0x28, 0x20, 0x48, 0x28, 0x20, 0x80, 0x20, 0x10, 0xa8,
   0x10, 0x50, 0x48, 0x20, 0x20, 0x40, 0x10, 0x80, 0xf8, 0x50, 0xd0, 0x90,
   0xd0, 0xa8, 0x48, 0x08, 0x00, 0x00, 0x10, 0x10, 0x00, 0x10, 0x00, 0x24,
   0x10, 0x62, 0x5c, 0x00, 0x20, 0x04, 0x10, 0x00, 0x10, 0x00, 0x18, 0x02,
   0x3c, 0x7c, 0x7e, 0x3c, 0x20, 0x1c, 0x3c, 0x08, 0x3c, 0x1c, 0x00, 0x10,
   0x70, 0x00, 0x0e, 0x08, 0x78, 0x42, 0x3e, 0x38, 0x1e, 0x7e, 0x02, 0x38,
   0x42, 0x38, 0x1c, 0x42, 0x7e, 0x42, 0x42, 0x18, 0x02, 0x58, 0x42, 0x3c,
   0x10, 0x3c, 0x18, 0x42, 0x42, 0x10, 0x7e, 0x3c, 0x10, 0x3c, 0x00, 0x7e,
   0x00, 0x5c, 0x3a, 0x3c, 0x5c, 0x3c, 0x08, 0x40, 0x42, 0x38, 0x22, 0x22,
   0x38, 0x92, 0x42, 0x3c, 0x02, 0x40, 0x02, 0x3e, 0x30, 0x5c, 0x18, 0x6c,
   0x42, 0x40, 0x7e, 0x70, 0x10, 0x0e, 0x00, 0x00, 0x00, 0xff, 0xff, 0xff,
   0xff, 0xff, 0xff, 0xff, 0x01, 0x03, 0x07, 0x0f, 0x1f, 0x3f, 0x7f, 0x10,
   0x00, 0x10, 0x10, 0x10, 0x00, 0x00, 0x10, 0x80, 0x10, 0x10, 0x00, 0x00,
   0x10, 0x10, 0x00, 0x00, 0x00, 0x1c, 0x00, 0x1c, 0x10, 0x00, 0x1c, 0x08,
   0x10, 0x30, 0x7c, 0x24, 0x08, 0x7c, 0x3c, 0x30, 0x00, 0x04, 0x10, 0x1c,
   0x7c, 0x10, 0x24, 0x10, 0x06, 0x08, 0x7e, 0x08, 0x1e, 0x42, 0x78, 0x0c,
   0x06, 0x0e, 0x0e, 0x04, 0x08, 0x04, 0x7e, 0x04, 0x10, 0x04, 0x42, 0x7c,
   0x0c, 0x00, 0x10, 0x10, 0x40, 0x40, 0x06, 0x78, 0x04, 0x7e, 0x7e, 0x08,
   0x18, 0x12, 0x0c, 0x7e, 0x18, 0x0e, 0x00, 0x00, 0x00, 0x10, 0x10, 0x10,
   0xfe, 0x7f, 0xc0, 0x03, 0x7c, 0x10, 0x10, 0x7c, 0x3c, 0x3c, 0x02, 0x40,
   0x42, 0x82, 0x10, 0x82, 0xfe, 0x50, 0x24, 0x28, 0x00, 0x00, 0x00, 0x00,
   0x40, 0x00, 0x00, 0x00, 0x00, 0x50, 0x28, 0x28, 0x20, 0x48, 0x28, 0x20,
   0x80, 0x20, 0x10, 0xa8, 0x10, 0x50, 0x48, 0x20, 0x20, 0x40, 0x10, 0x80,
   0xf8, 0x50, 0xd0, 0x90, 0xd0, 0xa8, 0x48, 0x08, 0x00, 0x00, 0x10, 0x10,
   0x00, 0x10, 0x00, 0x24, 0x10, 0x62, 0x5c, 0x00, 0x20, 0x04, 0x10, 0x00,
   0x10, 0x00, 0x18, 0x02, 0x3c, 0x7c, 0x7e, 0x3c, 0x20, 0x1c, 0x3c, 0x08,
   0x3c, 0x1c, 0x00, 0x10, 0x70, 0x00, 0x0e, 0x08, 0x78, 0x42, 0x3e, 0x38,
   0x1e, 0x7e, 0x02, 0x38, 0x42, 0x38, 0x1c, 0x42, 0x7e, 0x42, 0x42, 0x18,
   0x02, 0x58, 0x42, 0x3c, 0x10, 0x3c, 0x18, 0x42, 0x42, 0x10, 0x7e, 0x3c,
   0x10, 0x3c, 0x00, 0x7e, 0x00, 0x5c, 0x3a, 0x3c, 0x5c, 0x3c, 0x08, 0x40,
   0x42, 0x38, 0x22, 0x22, 0x38, 0x92, 0x42, 0x3c, 0x02, 0x40, 0x02, 0x3e,
   0x30, 0x5c, 0x18, 0x6c, 0x42, 0x40, 0x7e, 0x70, 0x10, 0x0e, 0x00, 0x00,
   0x00, 0xff, 0xff, 0xff, 0xff, 0xff, 0xff, 0xff, 0x01, 0x03, 0x07, 0x0f,
   0x1f, 0x3f, 0x7f, 0x10, 0x00, 0x10, 0x10, 0x10, 0x00, 0x00, 0x10, 0x80,
   0x10, 0x10, 0x00, 0x00, 0x10, 0x10, 0x00, 0x00, 0x00, 0x1c, 0x00, 0x1c,
   0x10, 0x00, 0x1c, 0x08, 0x10, 0x30, 0x7c, 0x24, 0x08, 0x7c, 0x3c, 0x30,
   0x00, 0x04, 0x10, 0x1c, 0x7c, 0x10, 0x24, 0x10, 0x06, 0x08, 0x7e, 0x08,
   0x1e, 0x42, 0x78, 0x0c, 0x06, 0x0e, 0x0e, 0x04, 0x08, 0x04, 0x7e, 0x04,
   0x10, 0x04, 0x42, 0x7c, 0x0c, 0x00, 0x10, 0x10, 0x40, 0x40, 0x06, 0x78,
   0x04, 0x7e, 0x7e, 0x08, 0x18, 0x12, 0x0c, 0x7e, 0x18, 0x0e, 0x00, 0x00,
   0x00, 0x10, 0x10, 0x10, 0xfe, 0x7f, 0xc0, 0x03, 0x7c, 0x10, 0x10, 0x7c,
   0x3c, 0x3c, 0x02, 0x40, 0x42, 0x82, 0x10, 0x82, 0xfe, 0x50, 0x24, 0x28,
   0x00, 0x00, 0x00, 0x00, 0x40, 0x00, 0x00, 0x00, 0x00, 0x50, 0x44, 0x44,
   0x20, 0xb0, 0x48, 0xe0, 0xe0, 0x20, 0x10, 0x88, 0xf0, 0x90, 0x30, 0x70,
   0xe0, 0xe0, 0xf0, 0xf0, 0x40, 0x90, 0x90, 0x70, 0x90, 0x88, 0x38, 0x70,
   0x00, 0x00, 0x00, 0x00, 0x00, 0x00, 0x00, 0x00, 0x00, 0x00, 0x00, 0x00,
   0x00, 0x00, 0x00, 0x00, 0x08, 0x00, 0x00, 0x00, 0x00, 0x00, 0x00, 0x00,
   0x00, 0x00, 0x00, 0x00, 0x00, 0x00, 0x00, 0x08, 0x00, 0x00, 0x00, 0x00,
   0x00, 0x00, 0x00, 0x00, 0x00, 0x00, 0x00, 0x00, 0x00, 0x00, 0x00, 0x00,
   0x00, 0x00, 0x00, 0x00, 0x00, 0x00, 0x00, 0x00, 0x00, 0x00, 0x00, 0x00,
   0x00, 0x00, 0x00, 0x00, 0x00, 0x00, 0x00, 0x00, 0x00, 0x00, 0x00, 0x00,
   0x00, 0x00, 0x00, 0x3c, 0x00, 0x00, 0x1c, 0x00, 0x00, 0x00, 0x00, 0x00,
   0x02, 0x40, 0x00, 0x00, 0x00, 0x00, 0x00, 0x00, 0x00, 0x3c, 0x00, 0x00,
   0x00, 0x00, 0x00, 0x00, 0xff, 0xff, 0xff, 0xff, 0xff, 0xff, 0xff, 0xff,
   0x01, 0x03, 0x07, 0x0f, 0x1f, 0x3f, 0x7f, 0x10, 0x00, 0x10, 0x10, 0x10,
   0x00, 0x00, 0x10, 0x80, 0x10, 0x10, 0x00, 0x00, 0x10, 0x10, 0x00, 0x00,
   0x00, 0x00, 0x00, 0x00, 0x00, 0x00, 0x00, 0x00, 0x00, 0x00, 0x00, 0x00,
   0x00, 0x00, 0x00, 0x00, 0x00, 0x00, 0x00, 0x00, 0x00, 0x00, 0x00, 0x00,
   0x00, 0x00, 0x00, 0x00, 0x00, 0x00, 0x00, 0x00, 0x00, 0x00, 0x00, 0x00,
   0x00, 0x00, 0x00, 0x00, 0x00, 0x00, 0x00, 0x00, 0x00, 0x00, 0x00, 0x00,
   0x00, 0x00, 0x00, 0x00, 0x00, 0x00, 0x00, 0x00, 0x00, 0x00, 0x00, 0x00,
   0x00, 0x00, 0x00, 0x00, 0x00, 0x10, 0x10, 0x10, 0xff, 0xff, 0x80, 0x01,
   0x00, 0x00, 0x00, 0x00, 0x00, 0x00, 0x01, 0x80, 0x81, 0x00, 0x00, 0x00,
   0x00, 0x40, 0x00, 0x00, 0x00, 0x00, 0x00, 0x00, 0x00, 0x00, 0x00, 0x00,
   0x00, 0x50, 0x44, 0x44, 0x20, 0xb0, 0x48, 0xe0, 0xe0, 0x20, 0x10, 0x88,
   0xf0, 0x90, 0x30, 0x70, 0xe0, 0xe0, 0xf0, 0xf0, 0x40, 0x90, 0x90, 0x70,
   0x90, 0x88, 0x38, 0x70, 0x00, 0x00, 0x00, 0x00, 0x00, 0x00, 0x00, 0x00,
   0x00, 0x00, 0x00, 0x00, 0x00, 0x00, 0x00, 0x00, 0x08, 0x00, 0x00, 0x00,
   0x00, 0x00, 0x00, 0x00, 0x00, 0x00, 0x00, 0x00, 0x00, 0x00, 0x00, 0x08,
   0x00, 0x00, 0x00, 0x00, 0x00, 0x00, 0x00, 0x00, 0x00, 0x00, 0x00, 0x00,
   0x00, 0x00, 0x00, 0x00, 0x00, 0x00, 0x00, 0x00, 0x00, 0x00, 0x00, 0x00,
   0x00, 0x00, 0x00, 0x00, 0x00, 0x00, 0x00, 0x00, 0x00, 0x00, 0x00, 0x00,
   0x00, 0x00, 0x00, 0x00, 0x00, 0x00, 0x00, 0x3c, 0x00, 0x00, 0x1c, 0x00,
   0x00, 0x00, 0x00, 0x00, 0x02, 0x40, 0x00, 0x00, 0x00, 0x00, 0x00, 0x00,
   0x00, 0x3c, 0x00, 0x00, 0x00, 0x00, 0x00, 0x00, 0xff, 0xff, 0xff, 0xff,
   0xff, 0xff, 0xff, 0xff, 0x01, 0x03, 0x07, 0x0f, 0x1f, 0x3f, 0x7f, 0x10,
   0x00, 0x10, 0x10, 0x10, 0x00, 0x00, 0x10, 0x80, 0x10, 0x10, 0x00, 0x00,
   0x10, 0x10, 0x00, 0x00, 0x00, 0x00, 0x00, 0x00, 0x00, 0x00, 0x00, 0x00,
   0x00, 0x00, 0x00, 0x00, 0x00, 0x00, 0x00, 0x00, 0x00, 0x00, 0x00, 0x00,
   0x00, 0x00, 0x00, 0x00, 0x00, 0x00, 0x00, 0x00, 0x00, 0x00, 0x00, 0x00,
   0x00, 0x00, 0x00, 0x00, 0x00, 0x00, 0x00, 0x00, 0x00, 0x00, 0x00, 0x00,
   0x00, 0x00, 0x00, 0x00, 0x00, 0x00, 0x00, 0x00, 0x00, 0x00, 0x00, 0x00,
   0x00, 0x00, 0x00, 0x00, 0x00, 0x00, 0x00, 0x00, 0x00, 0x10, 0x10, 0x10,
   0xff, 0xff, 0x80, 0x01, 0x00, 0x00, 0x00, 0x00, 0x00, 0x00, 0x01, 0x80,
   0x81, 0x00, 0x00, 0x00, 0x00, 0x40, 0x00, 0x00, 0x00, 0x00, 0x00, 0x00,
   0x00, 0x00, 0x00, 0x00 };
